%TF.GenerationSoftware,KiCad,Pcbnew,6.0.4+dfsg-1~bpo11+1*%
%TF.CreationDate,2022-04-07T01:30:12+04:30*%
%TF.ProjectId,EEPROM_Arduino_Programmer,45455052-4f4d-45f4-9172-6475696e6f5f,rev?*%
%TF.SameCoordinates,Original*%
%TF.FileFunction,Legend,Top*%
%TF.FilePolarity,Positive*%
%FSLAX46Y46*%
G04 Gerber Fmt 4.6, Leading zero omitted, Abs format (unit mm)*
G04 Created by KiCad (PCBNEW 6.0.4+dfsg-1~bpo11+1) date 2022-04-07 01:30:12*
%MOMM*%
%LPD*%
G01*
G04 APERTURE LIST*
%ADD10C,0.150000*%
%ADD11C,0.120000*%
G04 APERTURE END LIST*
D10*
X174117000Y-98425000D02*
X179197000Y-98425000D01*
X179197000Y-98425000D02*
X179197000Y-106045000D01*
X179197000Y-106045000D02*
X174117000Y-106045000D01*
X174117000Y-106045000D02*
X174117000Y-98425000D01*
X160528000Y-94615000D02*
X160528000Y-101600000D01*
X177546000Y-106045000D02*
G75*
G03*
X175768000Y-106045000I-889000J0D01*
G01*
X152400000Y-94615000D02*
X160528000Y-94615000D01*
X152400000Y-101600000D02*
X152400000Y-94615000D01*
X155202095Y-98258380D02*
X155202095Y-99067904D01*
X155249714Y-99163142D01*
X155297333Y-99210761D01*
X155392571Y-99258380D01*
X155583047Y-99258380D01*
X155678285Y-99210761D01*
X155725904Y-99163142D01*
X155773523Y-99067904D01*
X155773523Y-98258380D01*
X156202095Y-99210761D02*
X156344952Y-99258380D01*
X156583047Y-99258380D01*
X156678285Y-99210761D01*
X156725904Y-99163142D01*
X156773523Y-99067904D01*
X156773523Y-98972666D01*
X156725904Y-98877428D01*
X156678285Y-98829809D01*
X156583047Y-98782190D01*
X156392571Y-98734571D01*
X156297333Y-98686952D01*
X156249714Y-98639333D01*
X156202095Y-98544095D01*
X156202095Y-98448857D01*
X156249714Y-98353619D01*
X156297333Y-98306000D01*
X156392571Y-98258380D01*
X156630666Y-98258380D01*
X156773523Y-98306000D01*
X157535428Y-98734571D02*
X157678285Y-98782190D01*
X157725904Y-98829809D01*
X157773523Y-98925047D01*
X157773523Y-99067904D01*
X157725904Y-99163142D01*
X157678285Y-99210761D01*
X157583047Y-99258380D01*
X157202095Y-99258380D01*
X157202095Y-98258380D01*
X157535428Y-98258380D01*
X157630666Y-98306000D01*
X157678285Y-98353619D01*
X157725904Y-98448857D01*
X157725904Y-98544095D01*
X157678285Y-98639333D01*
X157630666Y-98686952D01*
X157535428Y-98734571D01*
X157202095Y-98734571D01*
X174442714Y-88828619D02*
X174490333Y-88781000D01*
X174585571Y-88733380D01*
X174823666Y-88733380D01*
X174918904Y-88781000D01*
X174966523Y-88828619D01*
X175014142Y-88923857D01*
X175014142Y-89019095D01*
X174966523Y-89161952D01*
X174395095Y-89733380D01*
X175014142Y-89733380D01*
X175585571Y-89161952D02*
X175490333Y-89114333D01*
X175442714Y-89066714D01*
X175395095Y-88971476D01*
X175395095Y-88923857D01*
X175442714Y-88828619D01*
X175490333Y-88781000D01*
X175585571Y-88733380D01*
X175776047Y-88733380D01*
X175871285Y-88781000D01*
X175918904Y-88828619D01*
X175966523Y-88923857D01*
X175966523Y-88971476D01*
X175918904Y-89066714D01*
X175871285Y-89114333D01*
X175776047Y-89161952D01*
X175585571Y-89161952D01*
X175490333Y-89209571D01*
X175442714Y-89257190D01*
X175395095Y-89352428D01*
X175395095Y-89542904D01*
X175442714Y-89638142D01*
X175490333Y-89685761D01*
X175585571Y-89733380D01*
X175776047Y-89733380D01*
X175871285Y-89685761D01*
X175918904Y-89638142D01*
X175966523Y-89542904D01*
X175966523Y-89352428D01*
X175918904Y-89257190D01*
X175871285Y-89209571D01*
X175776047Y-89161952D01*
X176966523Y-89638142D02*
X176918904Y-89685761D01*
X176776047Y-89733380D01*
X176680809Y-89733380D01*
X176537952Y-89685761D01*
X176442714Y-89590523D01*
X176395095Y-89495285D01*
X176347476Y-89304809D01*
X176347476Y-89161952D01*
X176395095Y-88971476D01*
X176442714Y-88876238D01*
X176537952Y-88781000D01*
X176680809Y-88733380D01*
X176776047Y-88733380D01*
X176918904Y-88781000D01*
X176966523Y-88828619D01*
X177918904Y-89733380D02*
X177347476Y-89733380D01*
X177633190Y-89733380D02*
X177633190Y-88733380D01*
X177537952Y-88876238D01*
X177442714Y-88971476D01*
X177347476Y-89019095D01*
X178776047Y-88733380D02*
X178585571Y-88733380D01*
X178490333Y-88781000D01*
X178442714Y-88828619D01*
X178347476Y-88971476D01*
X178299857Y-89161952D01*
X178299857Y-89542904D01*
X178347476Y-89638142D01*
X178395095Y-89685761D01*
X178490333Y-89733380D01*
X178680809Y-89733380D01*
X178776047Y-89685761D01*
X178823666Y-89638142D01*
X178871285Y-89542904D01*
X178871285Y-89304809D01*
X178823666Y-89209571D01*
X178776047Y-89161952D01*
X178680809Y-89114333D01*
X178490333Y-89114333D01*
X178395095Y-89161952D01*
X178347476Y-89209571D01*
X178299857Y-89304809D01*
X149535523Y-107497571D02*
X149868857Y-107497571D01*
X150011714Y-108021380D02*
X149535523Y-108021380D01*
X149535523Y-107021380D01*
X150011714Y-107021380D01*
X150440285Y-107497571D02*
X150773619Y-107497571D01*
X150916476Y-108021380D02*
X150440285Y-108021380D01*
X150440285Y-107021380D01*
X150916476Y-107021380D01*
X151345047Y-108021380D02*
X151345047Y-107021380D01*
X151726000Y-107021380D01*
X151821238Y-107069000D01*
X151868857Y-107116619D01*
X151916476Y-107211857D01*
X151916476Y-107354714D01*
X151868857Y-107449952D01*
X151821238Y-107497571D01*
X151726000Y-107545190D01*
X151345047Y-107545190D01*
X152916476Y-108021380D02*
X152583142Y-107545190D01*
X152345047Y-108021380D02*
X152345047Y-107021380D01*
X152726000Y-107021380D01*
X152821238Y-107069000D01*
X152868857Y-107116619D01*
X152916476Y-107211857D01*
X152916476Y-107354714D01*
X152868857Y-107449952D01*
X152821238Y-107497571D01*
X152726000Y-107545190D01*
X152345047Y-107545190D01*
X153535523Y-107021380D02*
X153726000Y-107021380D01*
X153821238Y-107069000D01*
X153916476Y-107164238D01*
X153964095Y-107354714D01*
X153964095Y-107688047D01*
X153916476Y-107878523D01*
X153821238Y-107973761D01*
X153726000Y-108021380D01*
X153535523Y-108021380D01*
X153440285Y-107973761D01*
X153345047Y-107878523D01*
X153297428Y-107688047D01*
X153297428Y-107354714D01*
X153345047Y-107164238D01*
X153440285Y-107069000D01*
X153535523Y-107021380D01*
X154392666Y-108021380D02*
X154392666Y-107021380D01*
X154726000Y-107735666D01*
X155059333Y-107021380D01*
X155059333Y-108021380D01*
X156297428Y-108021380D02*
X156297428Y-107021380D01*
X156678380Y-107021380D01*
X156773619Y-107069000D01*
X156821238Y-107116619D01*
X156868857Y-107211857D01*
X156868857Y-107354714D01*
X156821238Y-107449952D01*
X156773619Y-107497571D01*
X156678380Y-107545190D01*
X156297428Y-107545190D01*
X157297428Y-108021380D02*
X157297428Y-107354714D01*
X157297428Y-107545190D02*
X157345047Y-107449952D01*
X157392666Y-107402333D01*
X157487904Y-107354714D01*
X157583142Y-107354714D01*
X158059333Y-108021380D02*
X157964095Y-107973761D01*
X157916476Y-107926142D01*
X157868857Y-107830904D01*
X157868857Y-107545190D01*
X157916476Y-107449952D01*
X157964095Y-107402333D01*
X158059333Y-107354714D01*
X158202190Y-107354714D01*
X158297428Y-107402333D01*
X158345047Y-107449952D01*
X158392666Y-107545190D01*
X158392666Y-107830904D01*
X158345047Y-107926142D01*
X158297428Y-107973761D01*
X158202190Y-108021380D01*
X158059333Y-108021380D01*
X159249809Y-107354714D02*
X159249809Y-108164238D01*
X159202190Y-108259476D01*
X159154571Y-108307095D01*
X159059333Y-108354714D01*
X158916476Y-108354714D01*
X158821238Y-108307095D01*
X159249809Y-107973761D02*
X159154571Y-108021380D01*
X158964095Y-108021380D01*
X158868857Y-107973761D01*
X158821238Y-107926142D01*
X158773619Y-107830904D01*
X158773619Y-107545190D01*
X158821238Y-107449952D01*
X158868857Y-107402333D01*
X158964095Y-107354714D01*
X159154571Y-107354714D01*
X159249809Y-107402333D01*
X159726000Y-108021380D02*
X159726000Y-107354714D01*
X159726000Y-107545190D02*
X159773619Y-107449952D01*
X159821238Y-107402333D01*
X159916476Y-107354714D01*
X160011714Y-107354714D01*
X160773619Y-108021380D02*
X160773619Y-107497571D01*
X160726000Y-107402333D01*
X160630761Y-107354714D01*
X160440285Y-107354714D01*
X160345047Y-107402333D01*
X160773619Y-107973761D02*
X160678380Y-108021380D01*
X160440285Y-108021380D01*
X160345047Y-107973761D01*
X160297428Y-107878523D01*
X160297428Y-107783285D01*
X160345047Y-107688047D01*
X160440285Y-107640428D01*
X160678380Y-107640428D01*
X160773619Y-107592809D01*
X161249809Y-108021380D02*
X161249809Y-107354714D01*
X161249809Y-107449952D02*
X161297428Y-107402333D01*
X161392666Y-107354714D01*
X161535523Y-107354714D01*
X161630761Y-107402333D01*
X161678380Y-107497571D01*
X161678380Y-108021380D01*
X161678380Y-107497571D02*
X161726000Y-107402333D01*
X161821238Y-107354714D01*
X161964095Y-107354714D01*
X162059333Y-107402333D01*
X162106952Y-107497571D01*
X162106952Y-108021380D01*
X162583142Y-108021380D02*
X162583142Y-107354714D01*
X162583142Y-107449952D02*
X162630761Y-107402333D01*
X162726000Y-107354714D01*
X162868857Y-107354714D01*
X162964095Y-107402333D01*
X163011714Y-107497571D01*
X163011714Y-108021380D01*
X163011714Y-107497571D02*
X163059333Y-107402333D01*
X163154571Y-107354714D01*
X163297428Y-107354714D01*
X163392666Y-107402333D01*
X163440285Y-107497571D01*
X163440285Y-108021380D01*
X164297428Y-107973761D02*
X164202190Y-108021380D01*
X164011714Y-108021380D01*
X163916476Y-107973761D01*
X163868857Y-107878523D01*
X163868857Y-107497571D01*
X163916476Y-107402333D01*
X164011714Y-107354714D01*
X164202190Y-107354714D01*
X164297428Y-107402333D01*
X164345047Y-107497571D01*
X164345047Y-107592809D01*
X163868857Y-107688047D01*
X164773619Y-108021380D02*
X164773619Y-107354714D01*
X164773619Y-107545190D02*
X164821238Y-107449952D01*
X164868857Y-107402333D01*
X164964095Y-107354714D01*
X165059333Y-107354714D01*
%TO.C,Arduino Nano*%
X156757666Y-85121142D02*
X156757666Y-84644952D01*
X157043380Y-85216380D02*
X156043380Y-84883047D01*
X157043380Y-84549714D01*
X157043380Y-84216380D02*
X156376714Y-84216380D01*
X156567190Y-84216380D02*
X156471952Y-84168761D01*
X156424333Y-84121142D01*
X156376714Y-84025904D01*
X156376714Y-83930666D01*
X157043380Y-83168761D02*
X156043380Y-83168761D01*
X156995761Y-83168761D02*
X157043380Y-83264000D01*
X157043380Y-83454476D01*
X156995761Y-83549714D01*
X156948142Y-83597333D01*
X156852904Y-83644952D01*
X156567190Y-83644952D01*
X156471952Y-83597333D01*
X156424333Y-83549714D01*
X156376714Y-83454476D01*
X156376714Y-83264000D01*
X156424333Y-83168761D01*
X156376714Y-82264000D02*
X157043380Y-82264000D01*
X156376714Y-82692571D02*
X156900523Y-82692571D01*
X156995761Y-82644952D01*
X157043380Y-82549714D01*
X157043380Y-82406857D01*
X156995761Y-82311619D01*
X156948142Y-82264000D01*
X157043380Y-81787809D02*
X156376714Y-81787809D01*
X156043380Y-81787809D02*
X156091000Y-81835428D01*
X156138619Y-81787809D01*
X156091000Y-81740190D01*
X156043380Y-81787809D01*
X156138619Y-81787809D01*
X156376714Y-81311619D02*
X157043380Y-81311619D01*
X156471952Y-81311619D02*
X156424333Y-81264000D01*
X156376714Y-81168761D01*
X156376714Y-81025904D01*
X156424333Y-80930666D01*
X156519571Y-80883047D01*
X157043380Y-80883047D01*
X157043380Y-80264000D02*
X156995761Y-80359238D01*
X156948142Y-80406857D01*
X156852904Y-80454476D01*
X156567190Y-80454476D01*
X156471952Y-80406857D01*
X156424333Y-80359238D01*
X156376714Y-80264000D01*
X156376714Y-80121142D01*
X156424333Y-80025904D01*
X156471952Y-79978285D01*
X156567190Y-79930666D01*
X156852904Y-79930666D01*
X156948142Y-79978285D01*
X156995761Y-80025904D01*
X157043380Y-80121142D01*
X157043380Y-80264000D01*
X157043380Y-78740190D02*
X156043380Y-78740190D01*
X157043380Y-78168761D01*
X156043380Y-78168761D01*
X157043380Y-77264000D02*
X156519571Y-77264000D01*
X156424333Y-77311619D01*
X156376714Y-77406857D01*
X156376714Y-77597333D01*
X156424333Y-77692571D01*
X156995761Y-77264000D02*
X157043380Y-77359238D01*
X157043380Y-77597333D01*
X156995761Y-77692571D01*
X156900523Y-77740190D01*
X156805285Y-77740190D01*
X156710047Y-77692571D01*
X156662428Y-77597333D01*
X156662428Y-77359238D01*
X156614809Y-77264000D01*
X156376714Y-76787809D02*
X157043380Y-76787809D01*
X156471952Y-76787809D02*
X156424333Y-76740190D01*
X156376714Y-76644952D01*
X156376714Y-76502095D01*
X156424333Y-76406857D01*
X156519571Y-76359238D01*
X157043380Y-76359238D01*
X157043380Y-75740190D02*
X156995761Y-75835428D01*
X156948142Y-75883047D01*
X156852904Y-75930666D01*
X156567190Y-75930666D01*
X156471952Y-75883047D01*
X156424333Y-75835428D01*
X156376714Y-75740190D01*
X156376714Y-75597333D01*
X156424333Y-75502095D01*
X156471952Y-75454476D01*
X156567190Y-75406857D01*
X156852904Y-75406857D01*
X156948142Y-75454476D01*
X156995761Y-75502095D01*
X157043380Y-75597333D01*
X157043380Y-75740190D01*
%TO.C,U3*%
X175895095Y-85177380D02*
X175895095Y-85986904D01*
X175942714Y-86082142D01*
X175990333Y-86129761D01*
X176085571Y-86177380D01*
X176276047Y-86177380D01*
X176371285Y-86129761D01*
X176418904Y-86082142D01*
X176466523Y-85986904D01*
X176466523Y-85177380D01*
X176847476Y-85177380D02*
X177466523Y-85177380D01*
X177133190Y-85558333D01*
X177276047Y-85558333D01*
X177371285Y-85605952D01*
X177418904Y-85653571D01*
X177466523Y-85748809D01*
X177466523Y-85986904D01*
X177418904Y-86082142D01*
X177371285Y-86129761D01*
X177276047Y-86177380D01*
X176990333Y-86177380D01*
X176895095Y-86129761D01*
X176847476Y-86082142D01*
%TO.C,U2*%
X167767095Y-63587380D02*
X167767095Y-64396904D01*
X167814714Y-64492142D01*
X167862333Y-64539761D01*
X167957571Y-64587380D01*
X168148047Y-64587380D01*
X168243285Y-64539761D01*
X168290904Y-64492142D01*
X168338523Y-64396904D01*
X168338523Y-63587380D01*
X168767095Y-63682619D02*
X168814714Y-63635000D01*
X168909952Y-63587380D01*
X169148047Y-63587380D01*
X169243285Y-63635000D01*
X169290904Y-63682619D01*
X169338523Y-63777857D01*
X169338523Y-63873095D01*
X169290904Y-64015952D01*
X168719476Y-64587380D01*
X169338523Y-64587380D01*
%TO.C,U1*%
X183515095Y-73874380D02*
X183515095Y-74683904D01*
X183562714Y-74779142D01*
X183610333Y-74826761D01*
X183705571Y-74874380D01*
X183896047Y-74874380D01*
X183991285Y-74826761D01*
X184038904Y-74779142D01*
X184086523Y-74683904D01*
X184086523Y-73874380D01*
X185086523Y-74874380D02*
X184515095Y-74874380D01*
X184800809Y-74874380D02*
X184800809Y-73874380D01*
X184705571Y-74017238D01*
X184610333Y-74112476D01*
X184515095Y-74160095D01*
D11*
%TO.C,Arduino Nano*%
X162687000Y-61976000D02*
X165357000Y-61976000D01*
X147317000Y-64516000D02*
X147317000Y-102746000D01*
X162687000Y-61976000D02*
X162687000Y-100076000D01*
X165357000Y-59306000D02*
X147317000Y-59306000D01*
X147317000Y-59306000D02*
X147317000Y-61976000D01*
X149987000Y-61976000D02*
X147317000Y-61976000D01*
X149987000Y-64516000D02*
X149987000Y-100076000D01*
X165357000Y-102746000D02*
X165357000Y-59306000D01*
X147317000Y-102746000D02*
X165357000Y-102746000D01*
X149987000Y-64516000D02*
X147317000Y-64516000D01*
X149987000Y-100076000D02*
X147317000Y-100076000D01*
X162687000Y-100076000D02*
X165357000Y-100076000D01*
X149987000Y-64516000D02*
X149987000Y-61976000D01*
%TO.C,U3*%
X177662000Y-110936000D02*
X183122000Y-110936000D01*
X185612000Y-110996000D02*
X185612000Y-80276000D01*
X170202000Y-110936000D02*
X175662000Y-110936000D01*
X183122000Y-80336000D02*
X170202000Y-80336000D01*
X167712000Y-80276000D02*
X167712000Y-110996000D01*
X183122000Y-110936000D02*
X183122000Y-80336000D01*
X185612000Y-80276000D02*
X167712000Y-80276000D01*
X170202000Y-80336000D02*
X170202000Y-110936000D01*
X167712000Y-110996000D02*
X185612000Y-110996000D01*
X177662000Y-110936000D02*
G75*
G03*
X175662000Y-110936000I-1000000J0D01*
G01*
%TO.C,U2*%
X166198000Y-61475000D02*
X166198000Y-63125000D01*
X186638000Y-61475000D02*
X166198000Y-61475000D01*
X186638000Y-66775000D02*
X186638000Y-61475000D01*
X166198000Y-65125000D02*
X166198000Y-66775000D01*
X166198000Y-66775000D02*
X186638000Y-66775000D01*
X166198000Y-65125000D02*
G75*
G03*
X166198000Y-63125000I0J1000000D01*
G01*
%TO.C,U1*%
X186623000Y-77072000D02*
X186623000Y-75422000D01*
X166183000Y-71772000D02*
X166183000Y-77072000D01*
X186623000Y-71772000D02*
X166183000Y-71772000D01*
X166183000Y-77072000D02*
X186623000Y-77072000D01*
X186623000Y-73422000D02*
X186623000Y-71772000D01*
X186623000Y-73422000D02*
G75*
G03*
X186623000Y-75422000I0J-1000000D01*
G01*
%TD*%
M02*
