%TF.GenerationSoftware,KiCad,Pcbnew,9.0.6+1*%
%TF.CreationDate,2025-12-07T02:18:26+01:00*%
%TF.ProjectId,EEPROM_Arduino_Programmer,45455052-4f4d-45f4-9172-6475696e6f5f,rev?*%
%TF.SameCoordinates,Original*%
%TF.FileFunction,Copper,L1,Top*%
%TF.FilePolarity,Positive*%
%FSLAX46Y46*%
G04 Gerber Fmt 4.6, Leading zero omitted, Abs format (unit mm)*
G04 Created by KiCad (PCBNEW 9.0.6+1) date 2025-12-07 02:18:26*
%MOMM*%
%LPD*%
G01*
G04 APERTURE LIST*
%TA.AperFunction,ComponentPad*%
%ADD10R,1.600000X1.600000*%
%TD*%
%TA.AperFunction,ComponentPad*%
%ADD11O,1.600000X1.600000*%
%TD*%
%TA.AperFunction,ViaPad*%
%ADD12C,0.700000*%
%TD*%
%TA.AperFunction,ViaPad*%
%ADD13C,0.600000*%
%TD*%
%TA.AperFunction,Conductor*%
%ADD14C,0.300000*%
%TD*%
%TA.AperFunction,Conductor*%
%ADD15C,0.200000*%
%TD*%
G04 APERTURE END LIST*
D10*
%TO.P,Arduino Nano,1,D1/TX*%
%TO.N,unconnected-(A1-Pad1)*%
X148717000Y-63246000D03*
D11*
%TO.P,Arduino Nano,2,D0/RX*%
%TO.N,unconnected-(A1-Pad2)*%
X148717000Y-65786000D03*
%TO.P,Arduino Nano,3,~{RESET}*%
%TO.N,unconnected-(A1-Pad3)*%
X148717000Y-68326000D03*
%TO.P,Arduino Nano,4,GND*%
%TO.N,GND*%
X148717000Y-70866000D03*
%TO.P,Arduino Nano,5,D2*%
%TO.N,/clk*%
X148717000Y-73406000D03*
%TO.P,Arduino Nano,6,D3*%
%TO.N,/latch*%
X148717000Y-75946000D03*
%TO.P,Arduino Nano,7,D4*%
%TO.N,/data*%
X148717000Y-78486000D03*
%TO.P,Arduino Nano,8,D5*%
%TO.N,/D0*%
X148717000Y-81026000D03*
%TO.P,Arduino Nano,9,D6*%
%TO.N,/D1*%
X148717000Y-83566000D03*
%TO.P,Arduino Nano,10,D7*%
%TO.N,/D2*%
X148717000Y-86106000D03*
%TO.P,Arduino Nano,11,D8*%
%TO.N,/D3*%
X148717000Y-88646000D03*
%TO.P,Arduino Nano,12,D9*%
%TO.N,/D4*%
X148717000Y-91186000D03*
%TO.P,Arduino Nano,13,D10*%
%TO.N,/D5*%
X148717000Y-93726000D03*
%TO.P,Arduino Nano,14,D11*%
%TO.N,/D6*%
X148717000Y-96266000D03*
%TO.P,Arduino Nano,15,D12*%
%TO.N,/D7*%
X148717000Y-98806000D03*
%TO.P,Arduino Nano,16,D13*%
%TO.N,unconnected-(A1-Pad16)*%
X163957000Y-98806000D03*
%TO.P,Arduino Nano,17,3V3*%
%TO.N,unconnected-(A1-Pad17)*%
X163957000Y-96266000D03*
%TO.P,Arduino Nano,18,AREF*%
%TO.N,unconnected-(A1-Pad18)*%
X163957000Y-93726000D03*
%TO.P,Arduino Nano,19,A0*%
%TO.N,/~{OE}*%
X163957000Y-91186000D03*
%TO.P,Arduino Nano,20,A1*%
%TO.N,/~{WE}*%
X163957000Y-88646000D03*
%TO.P,Arduino Nano,21,A2*%
%TO.N,unconnected-(A1-Pad21)*%
X163957000Y-86106000D03*
%TO.P,Arduino Nano,22,A3*%
%TO.N,unconnected-(A1-Pad22)*%
X163957000Y-83566000D03*
%TO.P,Arduino Nano,23,A4*%
%TO.N,unconnected-(A1-Pad23)*%
X163957000Y-81026000D03*
%TO.P,Arduino Nano,24,A5*%
%TO.N,unconnected-(A1-Pad24)*%
X163957000Y-78486000D03*
%TO.P,Arduino Nano,25,A6*%
%TO.N,unconnected-(A1-Pad25)*%
X163957000Y-75946000D03*
%TO.P,Arduino Nano,26,A7*%
%TO.N,unconnected-(A1-Pad26)*%
X163957000Y-73406000D03*
%TO.P,Arduino Nano,27,+5V*%
%TO.N,VCC*%
X163957000Y-70866000D03*
%TO.P,Arduino Nano,28,~{RESET}*%
%TO.N,unconnected-(A1-Pad28)*%
X163957000Y-68326000D03*
%TO.P,Arduino Nano,29,GND*%
%TO.N,GND*%
X163957000Y-65786000D03*
%TO.P,Arduino Nano,30,VIN*%
%TO.N,unconnected-(A1-Pad30)*%
X163957000Y-63246000D03*
%TD*%
D10*
%TO.P,U3,1,A7*%
%TO.N,/A7*%
X184282000Y-109606000D03*
D11*
%TO.P,U3,2,A6*%
%TO.N,/A6*%
X184282000Y-107066000D03*
%TO.P,U3,3,A5*%
%TO.N,/A5*%
X184282000Y-104526000D03*
%TO.P,U3,4,A4*%
%TO.N,/A4*%
X184282000Y-101986000D03*
%TO.P,U3,5,A3*%
%TO.N,/A3*%
X184282000Y-99446000D03*
%TO.P,U3,6,A2*%
%TO.N,/A2*%
X184282000Y-96906000D03*
%TO.P,U3,7,A1*%
%TO.N,/A1*%
X184282000Y-94366000D03*
%TO.P,U3,8,A0*%
%TO.N,/A0*%
X184282000Y-91826000D03*
%TO.P,U3,9,I/O0*%
%TO.N,/D0*%
X184282000Y-89286000D03*
%TO.P,U3,10,I/O1*%
%TO.N,/D1*%
X184282000Y-86746000D03*
%TO.P,U3,11,I/O2*%
%TO.N,/D2*%
X184282000Y-84206000D03*
%TO.P,U3,12,GND*%
%TO.N,GND*%
X184282000Y-81666000D03*
%TO.P,U3,13,I/O3*%
%TO.N,/D3*%
X169042000Y-81666000D03*
%TO.P,U3,14,I/O4*%
%TO.N,/D4*%
X169042000Y-84206000D03*
%TO.P,U3,15,I/O5*%
%TO.N,/D5*%
X169042000Y-86746000D03*
%TO.P,U3,16,I/O6*%
%TO.N,/D6*%
X169042000Y-89286000D03*
%TO.P,U3,17*%
%TO.N,N/C*%
X169042000Y-91826000D03*
%TO.P,U3,18,~{CE}*%
%TO.N,GND*%
X169042000Y-94366000D03*
%TO.P,U3,19,A10*%
%TO.N,/A10*%
X169042000Y-96906000D03*
%TO.P,U3,20,~{OE}*%
%TO.N,/~{OE}*%
X169042000Y-99446000D03*
%TO.P,U3,21,~{WE}*%
%TO.N,/~{WE}*%
X169042000Y-101986000D03*
%TO.P,U3,22,A9*%
%TO.N,/A9*%
X169042000Y-104526000D03*
%TO.P,U3,23,A8*%
%TO.N,/A8*%
X169042000Y-107066000D03*
%TO.P,U3,24,VCC*%
%TO.N,VCC*%
X169042000Y-109606000D03*
%TD*%
D10*
%TO.P,U2,1,QB*%
%TO.N,/A9*%
X167528000Y-67935000D03*
D11*
%TO.P,U2,2,QC*%
%TO.N,/A10*%
X170068000Y-67935000D03*
%TO.P,U2,3,QD*%
%TO.N,unconnected-(U2-Pad3)*%
X172608000Y-67935000D03*
%TO.P,U2,4,QE*%
%TO.N,unconnected-(U2-Pad4)*%
X175148000Y-67935000D03*
%TO.P,U2,5,QF*%
%TO.N,unconnected-(U2-Pad5)*%
X177688000Y-67935000D03*
%TO.P,U2,6,QG*%
%TO.N,unconnected-(U2-Pad6)*%
X180228000Y-67935000D03*
%TO.P,U2,7,QH*%
%TO.N,unconnected-(U2-Pad7)*%
X182768000Y-67935000D03*
%TO.P,U2,8,GND*%
%TO.N,GND*%
X185308000Y-67935000D03*
%TO.P,U2,9,QH'*%
%TO.N,unconnected-(U2-Pad9)*%
X185308000Y-60315000D03*
%TO.P,U2,10,~{SRCLR}*%
%TO.N,VCC*%
X182768000Y-60315000D03*
%TO.P,U2,11,SRCLK*%
%TO.N,/latch*%
X180228000Y-60315000D03*
%TO.P,U2,12,RCLK*%
%TO.N,/clk*%
X177688000Y-60315000D03*
%TO.P,U2,13,~{OE}*%
%TO.N,GND*%
X175148000Y-60315000D03*
%TO.P,U2,14,SER*%
%TO.N,Net-(U1-Pad9)*%
X172608000Y-60315000D03*
%TO.P,U2,15,QA*%
%TO.N,/A8*%
X170068000Y-60315000D03*
%TO.P,U2,16,VCC*%
%TO.N,VCC*%
X167528000Y-60315000D03*
%TD*%
D10*
%TO.P,U1,1,QB*%
%TO.N,/A1*%
X185293000Y-70612000D03*
D11*
%TO.P,U1,2,QC*%
%TO.N,/A2*%
X182753000Y-70612000D03*
%TO.P,U1,3,QD*%
%TO.N,/A3*%
X180213000Y-70612000D03*
%TO.P,U1,4,QE*%
%TO.N,/A4*%
X177673000Y-70612000D03*
%TO.P,U1,5,QF*%
%TO.N,/A5*%
X175133000Y-70612000D03*
%TO.P,U1,6,QG*%
%TO.N,/A6*%
X172593000Y-70612000D03*
%TO.P,U1,7,QH*%
%TO.N,/A7*%
X170053000Y-70612000D03*
%TO.P,U1,8,GND*%
%TO.N,GND*%
X167513000Y-70612000D03*
%TO.P,U1,9,QH'*%
%TO.N,Net-(U1-Pad9)*%
X167513000Y-78232000D03*
%TO.P,U1,10,~{SRCLR}*%
%TO.N,VCC*%
X170053000Y-78232000D03*
%TO.P,U1,11,SRCLK*%
%TO.N,/latch*%
X172593000Y-78232000D03*
%TO.P,U1,12,RCLK*%
%TO.N,/clk*%
X175133000Y-78232000D03*
%TO.P,U1,13,~{OE}*%
%TO.N,GND*%
X177673000Y-78232000D03*
%TO.P,U1,14,SER*%
%TO.N,/data*%
X180213000Y-78232000D03*
%TO.P,U1,15,QA*%
%TO.N,/A0*%
X182753000Y-78232000D03*
%TO.P,U1,16,VCC*%
%TO.N,VCC*%
X185293000Y-78232000D03*
%TD*%
D12*
%TO.N,GND*%
X177673000Y-74676000D03*
X177673000Y-94361000D03*
X177673000Y-82931000D03*
X182132500Y-72517000D03*
D13*
%TO.N,/clk*%
X166497000Y-79756000D03*
%TO.N,/latch*%
X172593000Y-81915000D03*
X176403000Y-61976000D03*
X166243000Y-82296000D03*
%TO.N,/data*%
X159385000Y-79248000D03*
%TO.N,/D0*%
X154559000Y-89916000D03*
X150622000Y-89916000D03*
%TO.N,/D1*%
X151638000Y-84836000D03*
%TO.N,/D2*%
X175260000Y-86868000D03*
X175260000Y-84201000D03*
X151638000Y-86106000D03*
%TO.N,/~{WE}*%
X162179000Y-100457000D03*
D12*
%TO.N,VCC*%
X155575000Y-84074000D03*
X168402000Y-62865000D03*
D13*
X173115767Y-63641767D03*
D12*
X155829000Y-91313000D03*
D13*
X155829000Y-103759000D03*
D12*
X155575000Y-66294000D03*
X170053000Y-74676000D03*
X176911000Y-63627000D03*
D13*
%TO.N,/A10*%
X171922500Y-93980000D03*
X162433000Y-72644000D03*
X171922500Y-80899000D03*
X162433000Y-77851000D03*
%TO.N,/A8*%
X160020000Y-92202000D03*
X160020000Y-83947000D03*
X161798000Y-75819000D03*
X166370000Y-61849000D03*
X161798000Y-78359000D03*
X162306000Y-61849000D03*
%TD*%
D14*
%TO.N,GND*%
X177673000Y-82931000D02*
X177673000Y-94361000D01*
X182132500Y-71895783D02*
X182132500Y-72517000D01*
X177673000Y-78232000D02*
X177673000Y-74676000D01*
X181483000Y-71246282D02*
X182132500Y-71895783D01*
X181483000Y-69723000D02*
X181483000Y-71246282D01*
X184028000Y-69215000D02*
X181991000Y-69215000D01*
X185308000Y-67935000D02*
X184028000Y-69215000D01*
X181991000Y-69215000D02*
X181483000Y-69723000D01*
D15*
%TO.N,/clk*%
X175133000Y-72390000D02*
X175133000Y-78232000D01*
X177688000Y-60315000D02*
X177688000Y-65644000D01*
X173863000Y-71120000D02*
X175133000Y-72390000D01*
X175768000Y-69342000D02*
X174498000Y-69342000D01*
X155321000Y-73406000D02*
X161671000Y-79756000D01*
X177688000Y-65644000D02*
X176403000Y-66929000D01*
X174498000Y-69342000D02*
X173863000Y-69977000D01*
X148717000Y-73406000D02*
X155321000Y-73406000D01*
X161671000Y-79756000D02*
X166497000Y-79756000D01*
X176403000Y-66929000D02*
X176403000Y-68707000D01*
X176403000Y-68707000D02*
X175768000Y-69342000D01*
X173863000Y-69977000D02*
X173863000Y-71120000D01*
%TO.N,/latch*%
X157099000Y-75946000D02*
X163449000Y-82296000D01*
X171323000Y-71247000D02*
X171323000Y-64516000D01*
X172593000Y-72517000D02*
X171323000Y-71247000D01*
X172593000Y-78232000D02*
X172593000Y-72517000D01*
X163449000Y-82296000D02*
X166243000Y-82296000D01*
X148717000Y-75946000D02*
X157099000Y-75946000D01*
X172593000Y-78232000D02*
X172593000Y-81915000D01*
X171323000Y-64516000D02*
X173863000Y-61976000D01*
X173863000Y-61976000D02*
X176403000Y-61976000D01*
%TO.N,/data*%
X158623000Y-78486000D02*
X148717000Y-78486000D01*
X159385000Y-79248000D02*
X158623000Y-78486000D01*
%TO.N,/D0*%
X150622000Y-89916000D02*
X154559000Y-89916000D01*
%TO.N,/D1*%
X150368000Y-83566000D02*
X148717000Y-83566000D01*
X151638000Y-84836000D02*
X150368000Y-83566000D01*
%TO.N,/D2*%
X151638000Y-86106000D02*
X148717000Y-86106000D01*
X175260000Y-84328000D02*
X175260000Y-84201000D01*
X175260000Y-86868000D02*
X175260000Y-84328000D01*
%TO.N,/D3*%
X155892500Y-82804000D02*
X161163000Y-82804000D01*
X163195000Y-84836000D02*
X165872000Y-84836000D01*
X165872000Y-84836000D02*
X169042000Y-81666000D01*
X150050500Y-88646000D02*
X155892500Y-82804000D01*
X148717000Y-88646000D02*
X150050500Y-88646000D01*
X161163000Y-82804000D02*
X163195000Y-84836000D01*
%TO.N,/D4*%
X166624000Y-86614000D02*
X166634000Y-86614000D01*
X164719000Y-101600000D02*
X165989000Y-100330000D01*
X166634000Y-86614000D02*
X169042000Y-84206000D01*
X165989000Y-100330000D02*
X165989000Y-87249000D01*
X165989000Y-87249000D02*
X166624000Y-86614000D01*
X148717000Y-91186000D02*
X159131000Y-101600000D01*
X159131000Y-101600000D02*
X164719000Y-101600000D01*
%TO.N,/D5*%
X166624000Y-89164000D02*
X166624000Y-100711000D01*
X169042000Y-86746000D02*
X166624000Y-89164000D01*
X157226000Y-102235000D02*
X148717000Y-93726000D01*
X166624000Y-100711000D02*
X165100000Y-102235000D01*
X165100000Y-102235000D02*
X157226000Y-102235000D01*
%TO.N,/D6*%
X155321000Y-102870000D02*
X165354000Y-102870000D01*
X148717000Y-96266000D02*
X155321000Y-102870000D01*
X167259000Y-91069000D02*
X169042000Y-89286000D01*
X165354000Y-102870000D02*
X167259000Y-100965000D01*
X167259000Y-100965000D02*
X167259000Y-91069000D01*
%TO.N,/~{WE}*%
X162179000Y-90424000D02*
X162179000Y-100457000D01*
X163957000Y-88646000D02*
X162179000Y-90424000D01*
D14*
%TO.N,VCC*%
X176896233Y-63641767D02*
X176911000Y-63627000D01*
X155575000Y-91059000D02*
X155575000Y-84074000D01*
X170053000Y-78232000D02*
X170053000Y-74676000D01*
X173115767Y-63641767D02*
X176896233Y-63641767D01*
X155829000Y-91313000D02*
X155575000Y-91059000D01*
D15*
%TO.N,/A1*%
X186563000Y-71882000D02*
X186563000Y-92085000D01*
X185293000Y-70612000D02*
X186563000Y-71882000D01*
X186563000Y-92085000D02*
X184282000Y-94366000D01*
%TO.N,/A2*%
X182245000Y-94869000D02*
X184282000Y-96906000D01*
X184023000Y-79756000D02*
X182245000Y-81534000D01*
X182245000Y-81534000D02*
X182245000Y-94869000D01*
X182753000Y-70612000D02*
X184023000Y-71882000D01*
X184023000Y-71882000D02*
X184023000Y-79756000D01*
%TO.N,/A3*%
X181483000Y-96647000D02*
X184282000Y-99446000D01*
X180213000Y-70612000D02*
X181483000Y-71882000D01*
X181483000Y-71882000D02*
X181483000Y-96647000D01*
%TO.N,/A4*%
X178943000Y-96647000D02*
X178943000Y-71882000D01*
X184282000Y-101986000D02*
X178943000Y-96647000D01*
X178943000Y-71882000D02*
X177673000Y-70612000D01*
%TO.N,/A5*%
X175133000Y-70612000D02*
X176403000Y-71882000D01*
X176403000Y-96647000D02*
X184282000Y-104526000D01*
X176403000Y-71882000D02*
X176403000Y-96647000D01*
%TO.N,/A6*%
X173863000Y-96647000D02*
X184282000Y-107066000D01*
X173863000Y-71882000D02*
X173863000Y-96647000D01*
X172593000Y-70612000D02*
X173863000Y-71882000D01*
%TO.N,/A7*%
X171323000Y-96647000D02*
X171323000Y-71882000D01*
X184282000Y-109606000D02*
X171323000Y-96647000D01*
X171323000Y-71882000D02*
X170053000Y-70612000D01*
%TO.N,Net-(U1-Pad9)*%
X172608000Y-60315000D02*
X166243000Y-66680000D01*
X166243000Y-76962000D02*
X167513000Y-78232000D01*
X166243000Y-66680000D02*
X166243000Y-76962000D01*
%TO.N,/A9*%
X170434000Y-81026000D02*
X170434000Y-103134000D01*
X168783000Y-69190000D02*
X168783000Y-79375000D01*
X167528000Y-67935000D02*
X168783000Y-69190000D01*
X168783000Y-79375000D02*
X170434000Y-81026000D01*
X170434000Y-103134000D02*
X169042000Y-104526000D01*
%TO.N,/A10*%
X162433000Y-77851000D02*
X162433000Y-72644000D01*
X171922500Y-93980000D02*
X171922500Y-80899000D01*
%TO.N,/A8*%
X166370000Y-61849000D02*
X162306000Y-61849000D01*
X160020000Y-83947000D02*
X160020000Y-92202000D01*
X161798000Y-75819000D02*
X161798000Y-78359000D01*
%TD*%
%TA.AperFunction,Conductor*%
%TO.N,VCC*%
G36*
X167225884Y-58821502D02*
G01*
X167272377Y-58875158D01*
X167282481Y-58945432D01*
X167252987Y-59010012D01*
X167196699Y-59047333D01*
X167025906Y-59102826D01*
X167025900Y-59102829D01*
X166842454Y-59196300D01*
X166675892Y-59317315D01*
X166675889Y-59317317D01*
X166530317Y-59462889D01*
X166530315Y-59462892D01*
X166409300Y-59629454D01*
X166315829Y-59812900D01*
X166315826Y-59812906D01*
X166252208Y-60008704D01*
X166243926Y-60061000D01*
X167216314Y-60061000D01*
X167207920Y-60069394D01*
X167155259Y-60160606D01*
X167128000Y-60262339D01*
X167128000Y-60367661D01*
X167155259Y-60469394D01*
X167207920Y-60560606D01*
X167216314Y-60569000D01*
X166243926Y-60569000D01*
X166252208Y-60621295D01*
X166315826Y-60817093D01*
X166315829Y-60817099D01*
X166341272Y-60867034D01*
X166354376Y-60936811D01*
X166327676Y-61002596D01*
X166269648Y-61043502D01*
X166253587Y-61047816D01*
X166167190Y-61065001D01*
X166134169Y-61071570D01*
X165987032Y-61132517D01*
X165857202Y-61219265D01*
X165789451Y-61240480D01*
X165787202Y-61240500D01*
X162888798Y-61240500D01*
X162820677Y-61220498D01*
X162818840Y-61219294D01*
X162688968Y-61132517D01*
X162541831Y-61071570D01*
X162463730Y-61056035D01*
X162385632Y-61040500D01*
X162385630Y-61040500D01*
X162226370Y-61040500D01*
X162226367Y-61040500D01*
X162109219Y-61063802D01*
X162070169Y-61071570D01*
X162070167Y-61071571D01*
X161923032Y-61132517D01*
X161790609Y-61220998D01*
X161790603Y-61221003D01*
X161678003Y-61333603D01*
X161677998Y-61333609D01*
X161611121Y-61433699D01*
X161589517Y-61466032D01*
X161528570Y-61613169D01*
X161522536Y-61643502D01*
X161497500Y-61769367D01*
X161497500Y-61769370D01*
X161497500Y-61928630D01*
X161528570Y-62084831D01*
X161589517Y-62231968D01*
X161659565Y-62336803D01*
X161677998Y-62364390D01*
X161678003Y-62364396D01*
X161790603Y-62476996D01*
X161790609Y-62477001D01*
X161790611Y-62477003D01*
X161923032Y-62565483D01*
X162070169Y-62626430D01*
X162226370Y-62657500D01*
X162226371Y-62657500D01*
X162385629Y-62657500D01*
X162385630Y-62657500D01*
X162541831Y-62626430D01*
X162567386Y-62615844D01*
X162637971Y-62608253D01*
X162701459Y-62640030D01*
X162737689Y-62701087D01*
X162735437Y-62771188D01*
X162680721Y-62939587D01*
X162680720Y-62939590D01*
X162680720Y-62939592D01*
X162648500Y-63143019D01*
X162648500Y-63348981D01*
X162680720Y-63552408D01*
X162744366Y-63748290D01*
X162837871Y-63931803D01*
X162958932Y-64098430D01*
X162958934Y-64098432D01*
X162958936Y-64098435D01*
X163104564Y-64244063D01*
X163104567Y-64244065D01*
X163104570Y-64244068D01*
X163271197Y-64365129D01*
X163346962Y-64403733D01*
X163398577Y-64452482D01*
X163415643Y-64521397D01*
X163392742Y-64588598D01*
X163346963Y-64628266D01*
X163278033Y-64663387D01*
X163271193Y-64666873D01*
X163104567Y-64787934D01*
X163104564Y-64787936D01*
X162958936Y-64933564D01*
X162958934Y-64933567D01*
X162837873Y-65100193D01*
X162744367Y-65283708D01*
X162744364Y-65283714D01*
X162680721Y-65479587D01*
X162680720Y-65479590D01*
X162680720Y-65479592D01*
X162648500Y-65683019D01*
X162648500Y-65888981D01*
X162680720Y-66092408D01*
X162744366Y-66288290D01*
X162837871Y-66471803D01*
X162958932Y-66638430D01*
X162958934Y-66638432D01*
X162958936Y-66638435D01*
X163104564Y-66784063D01*
X163104567Y-66784065D01*
X163104570Y-66784068D01*
X163271197Y-66905129D01*
X163346962Y-66943733D01*
X163398577Y-66992482D01*
X163415643Y-67061397D01*
X163392742Y-67128598D01*
X163346963Y-67168266D01*
X163278033Y-67203387D01*
X163271193Y-67206873D01*
X163104567Y-67327934D01*
X163104564Y-67327936D01*
X162958936Y-67473564D01*
X162958934Y-67473567D01*
X162837873Y-67640193D01*
X162744367Y-67823708D01*
X162744364Y-67823714D01*
X162680721Y-68019587D01*
X162680720Y-68019590D01*
X162680720Y-68019592D01*
X162648500Y-68223019D01*
X162648500Y-68428981D01*
X162680720Y-68632408D01*
X162680721Y-68632412D01*
X162741984Y-68820961D01*
X162744366Y-68828290D01*
X162837871Y-69011803D01*
X162958932Y-69178430D01*
X162958934Y-69178432D01*
X162958936Y-69178435D01*
X163104564Y-69324063D01*
X163104567Y-69324065D01*
X163104570Y-69324068D01*
X163271197Y-69445129D01*
X163347511Y-69484013D01*
X163399126Y-69532760D01*
X163416192Y-69601675D01*
X163393292Y-69668876D01*
X163347513Y-69708545D01*
X163271455Y-69747299D01*
X163104892Y-69868315D01*
X163104889Y-69868317D01*
X162959317Y-70013889D01*
X162959315Y-70013892D01*
X162838300Y-70180454D01*
X162744829Y-70363900D01*
X162744826Y-70363906D01*
X162681208Y-70559704D01*
X162672926Y-70612000D01*
X163526297Y-70612000D01*
X163491075Y-70673007D01*
X163457000Y-70800174D01*
X163457000Y-70931826D01*
X163491075Y-71058993D01*
X163526297Y-71120000D01*
X162672926Y-71120000D01*
X162681208Y-71172295D01*
X162744826Y-71368093D01*
X162744829Y-71368099D01*
X162838300Y-71551545D01*
X162959315Y-71718107D01*
X162959317Y-71718110D01*
X162974459Y-71733252D01*
X163008485Y-71795564D01*
X163003420Y-71866379D01*
X162960873Y-71923215D01*
X162894353Y-71948026D01*
X162824979Y-71932935D01*
X162816503Y-71927803D01*
X162815968Y-71927517D01*
X162799028Y-71920500D01*
X162668831Y-71866570D01*
X162590730Y-71851035D01*
X162512632Y-71835500D01*
X162512630Y-71835500D01*
X162353370Y-71835500D01*
X162353367Y-71835500D01*
X162236219Y-71858802D01*
X162197169Y-71866570D01*
X162151971Y-71885292D01*
X162050032Y-71927517D01*
X161917609Y-72015998D01*
X161917603Y-72016003D01*
X161805003Y-72128603D01*
X161804998Y-72128609D01*
X161757805Y-72199239D01*
X161716517Y-72261032D01*
X161655570Y-72408169D01*
X161650741Y-72432445D01*
X161624500Y-72564367D01*
X161624500Y-72723632D01*
X161640035Y-72801730D01*
X161655570Y-72879831D01*
X161716517Y-73026968D01*
X161803265Y-73156797D01*
X161824480Y-73224549D01*
X161824500Y-73226798D01*
X161824500Y-74885983D01*
X161804498Y-74954104D01*
X161750842Y-75000597D01*
X161723082Y-75009562D01*
X161596467Y-75034747D01*
X161562169Y-75041570D01*
X161562167Y-75041571D01*
X161415032Y-75102517D01*
X161282609Y-75190998D01*
X161282603Y-75191003D01*
X161170003Y-75303603D01*
X161169998Y-75303609D01*
X161081517Y-75436032D01*
X161020571Y-75583167D01*
X161020570Y-75583170D01*
X160989500Y-75739367D01*
X160989500Y-75739370D01*
X160989500Y-75898630D01*
X161020570Y-76054831D01*
X161081517Y-76201968D01*
X161168265Y-76331797D01*
X161189480Y-76399549D01*
X161189500Y-76401798D01*
X161189500Y-77776201D01*
X161185198Y-77792117D01*
X161185818Y-77806437D01*
X161174235Y-77832676D01*
X161172345Y-77839673D01*
X161170120Y-77843487D01*
X161169997Y-77843611D01*
X161081517Y-77976032D01*
X161053779Y-78042994D01*
X161049480Y-78050368D01*
X161029633Y-78069127D01*
X161012495Y-78090396D01*
X161004221Y-78093149D01*
X160997886Y-78099138D01*
X160971049Y-78104189D01*
X160945131Y-78112816D01*
X160936681Y-78110659D01*
X160928115Y-78112272D01*
X160902806Y-78102012D01*
X160876340Y-78095257D01*
X160865644Y-78086947D01*
X160862319Y-78085600D01*
X160860389Y-78082866D01*
X160851540Y-78075991D01*
X155694633Y-72919083D01*
X155694623Y-72919075D01*
X155555877Y-72838970D01*
X155555874Y-72838969D01*
X155555873Y-72838968D01*
X155555871Y-72838967D01*
X155555870Y-72838967D01*
X155478491Y-72818234D01*
X155401111Y-72797500D01*
X155401109Y-72797500D01*
X149952730Y-72797500D01*
X149884609Y-72777498D01*
X149840465Y-72728706D01*
X149836129Y-72720196D01*
X149749931Y-72601555D01*
X149715068Y-72553570D01*
X149715065Y-72553567D01*
X149715063Y-72553564D01*
X149569435Y-72407936D01*
X149569432Y-72407934D01*
X149569430Y-72407932D01*
X149402803Y-72286871D01*
X149327034Y-72248265D01*
X149275422Y-72199519D01*
X149258356Y-72130604D01*
X149281257Y-72063402D01*
X149327034Y-72023735D01*
X149402803Y-71985129D01*
X149569430Y-71864068D01*
X149715068Y-71718430D01*
X149836129Y-71551803D01*
X149929634Y-71368290D01*
X149993280Y-71172408D01*
X150025500Y-70968981D01*
X150025500Y-70763019D01*
X149993280Y-70559592D01*
X149929634Y-70363710D01*
X149836129Y-70180197D01*
X149715068Y-70013570D01*
X149715065Y-70013567D01*
X149715063Y-70013564D01*
X149569435Y-69867936D01*
X149569432Y-69867934D01*
X149569430Y-69867932D01*
X149416600Y-69756895D01*
X149402806Y-69746873D01*
X149402805Y-69746872D01*
X149402803Y-69746871D01*
X149327034Y-69708265D01*
X149275422Y-69659519D01*
X149258356Y-69590604D01*
X149281257Y-69523402D01*
X149327034Y-69483735D01*
X149402803Y-69445129D01*
X149569430Y-69324068D01*
X149715068Y-69178430D01*
X149836129Y-69011803D01*
X149929634Y-68828290D01*
X149993280Y-68632408D01*
X150025500Y-68428981D01*
X150025500Y-68223019D01*
X149993280Y-68019592D01*
X149929634Y-67823710D01*
X149836129Y-67640197D01*
X149715068Y-67473570D01*
X149715065Y-67473567D01*
X149715063Y-67473564D01*
X149569435Y-67327936D01*
X149569432Y-67327934D01*
X149569430Y-67327932D01*
X149402803Y-67206871D01*
X149327034Y-67168265D01*
X149275422Y-67119519D01*
X149258356Y-67050604D01*
X149281257Y-66983402D01*
X149327034Y-66943735D01*
X149402803Y-66905129D01*
X149569430Y-66784068D01*
X149715068Y-66638430D01*
X149836129Y-66471803D01*
X149929634Y-66288290D01*
X149993280Y-66092408D01*
X150025500Y-65888981D01*
X150025500Y-65683019D01*
X149993280Y-65479592D01*
X149929634Y-65283710D01*
X149836129Y-65100197D01*
X149715068Y-64933570D01*
X149715065Y-64933567D01*
X149715063Y-64933564D01*
X149569436Y-64787937D01*
X149569432Y-64787934D01*
X149569430Y-64787932D01*
X149553673Y-64776484D01*
X149510322Y-64720263D01*
X149504247Y-64649527D01*
X149537379Y-64586735D01*
X149599199Y-64551824D01*
X149614271Y-64549272D01*
X149626196Y-64547990D01*
X149626199Y-64547989D01*
X149626201Y-64547989D01*
X149763204Y-64496889D01*
X149880261Y-64409261D01*
X149967889Y-64292204D01*
X150018989Y-64155201D01*
X150020369Y-64142373D01*
X150025499Y-64094649D01*
X150025500Y-64094632D01*
X150025500Y-62397367D01*
X150025499Y-62397350D01*
X150018990Y-62336803D01*
X150018988Y-62336795D01*
X149989924Y-62258875D01*
X149967889Y-62199796D01*
X149967888Y-62199794D01*
X149967887Y-62199792D01*
X149880261Y-62082738D01*
X149763207Y-61995112D01*
X149763202Y-61995110D01*
X149626204Y-61944011D01*
X149626196Y-61944009D01*
X149565649Y-61937500D01*
X149565638Y-61937500D01*
X147868362Y-61937500D01*
X147868350Y-61937500D01*
X147807803Y-61944009D01*
X147807795Y-61944011D01*
X147670797Y-61995110D01*
X147670792Y-61995112D01*
X147553738Y-62082738D01*
X147466112Y-62199792D01*
X147466110Y-62199797D01*
X147415011Y-62336795D01*
X147415009Y-62336803D01*
X147408500Y-62397350D01*
X147408500Y-64094649D01*
X147415009Y-64155196D01*
X147415011Y-64155204D01*
X147466110Y-64292202D01*
X147466112Y-64292207D01*
X147553738Y-64409261D01*
X147670792Y-64496887D01*
X147670794Y-64496888D01*
X147670796Y-64496889D01*
X147707567Y-64510604D01*
X147807795Y-64547988D01*
X147807798Y-64547988D01*
X147807799Y-64547989D01*
X147807804Y-64547990D01*
X147819728Y-64549272D01*
X147885321Y-64576440D01*
X147925813Y-64634757D01*
X147928349Y-64705708D01*
X147892122Y-64766767D01*
X147880326Y-64776484D01*
X147864567Y-64787933D01*
X147718936Y-64933564D01*
X147718934Y-64933567D01*
X147597873Y-65100193D01*
X147504367Y-65283708D01*
X147504364Y-65283714D01*
X147440721Y-65479587D01*
X147440720Y-65479590D01*
X147440720Y-65479592D01*
X147408500Y-65683019D01*
X147408500Y-65888981D01*
X147440720Y-66092408D01*
X147504366Y-66288290D01*
X147597871Y-66471803D01*
X147718932Y-66638430D01*
X147718934Y-66638432D01*
X147718936Y-66638435D01*
X147864564Y-66784063D01*
X147864567Y-66784065D01*
X147864570Y-66784068D01*
X148031197Y-66905129D01*
X148106962Y-66943733D01*
X148158577Y-66992482D01*
X148175643Y-67061397D01*
X148152742Y-67128598D01*
X148106963Y-67168266D01*
X148038033Y-67203387D01*
X148031193Y-67206873D01*
X147864567Y-67327934D01*
X147864564Y-67327936D01*
X147718936Y-67473564D01*
X147718934Y-67473567D01*
X147597873Y-67640193D01*
X147504367Y-67823708D01*
X147504364Y-67823714D01*
X147440721Y-68019587D01*
X147440720Y-68019590D01*
X147440720Y-68019592D01*
X147408500Y-68223019D01*
X147408500Y-68428981D01*
X147440720Y-68632408D01*
X147440721Y-68632412D01*
X147501984Y-68820961D01*
X147504366Y-68828290D01*
X147597871Y-69011803D01*
X147718932Y-69178430D01*
X147718934Y-69178432D01*
X147718936Y-69178435D01*
X147864564Y-69324063D01*
X147864567Y-69324065D01*
X147864570Y-69324068D01*
X148031197Y-69445129D01*
X148106962Y-69483733D01*
X148158577Y-69532482D01*
X148175643Y-69601397D01*
X148152742Y-69668598D01*
X148106963Y-69708266D01*
X148106416Y-69708545D01*
X148031193Y-69746873D01*
X147864567Y-69867934D01*
X147864564Y-69867936D01*
X147718936Y-70013564D01*
X147718934Y-70013567D01*
X147597873Y-70180193D01*
X147504367Y-70363708D01*
X147504364Y-70363714D01*
X147440721Y-70559587D01*
X147440720Y-70559590D01*
X147440720Y-70559592D01*
X147408500Y-70763019D01*
X147408500Y-70968981D01*
X147440702Y-71172295D01*
X147440721Y-71172412D01*
X147440914Y-71173007D01*
X147504366Y-71368290D01*
X147597871Y-71551803D01*
X147718932Y-71718430D01*
X147718934Y-71718432D01*
X147718936Y-71718435D01*
X147864564Y-71864063D01*
X147864567Y-71864065D01*
X147864570Y-71864068D01*
X148031197Y-71985129D01*
X148106962Y-72023733D01*
X148158577Y-72072482D01*
X148175643Y-72141397D01*
X148152742Y-72208598D01*
X148106963Y-72248266D01*
X148040508Y-72282127D01*
X148031193Y-72286873D01*
X147864567Y-72407934D01*
X147864564Y-72407936D01*
X147718936Y-72553564D01*
X147718934Y-72553567D01*
X147597873Y-72720193D01*
X147504367Y-72903708D01*
X147504364Y-72903714D01*
X147440721Y-73099587D01*
X147440720Y-73099590D01*
X147440720Y-73099592D01*
X147408500Y-73303019D01*
X147408500Y-73508981D01*
X147440720Y-73712408D01*
X147440721Y-73712412D01*
X147503017Y-73904140D01*
X147504366Y-73908290D01*
X147597871Y-74091803D01*
X147718932Y-74258430D01*
X147718934Y-74258432D01*
X147718936Y-74258435D01*
X147864564Y-74404063D01*
X147864567Y-74404065D01*
X147864570Y-74404068D01*
X148031197Y-74525129D01*
X148106962Y-74563733D01*
X148158577Y-74612482D01*
X148175643Y-74681397D01*
X148152742Y-74748598D01*
X148106963Y-74788266D01*
X148038033Y-74823387D01*
X148031193Y-74826873D01*
X147864567Y-74947934D01*
X147864564Y-74947936D01*
X147718936Y-75093564D01*
X147718934Y-75093567D01*
X147597873Y-75260193D01*
X147504367Y-75443708D01*
X147504364Y-75443714D01*
X147440721Y-75639587D01*
X147440720Y-75639590D01*
X147440720Y-75639592D01*
X147408500Y-75843019D01*
X147408500Y-76048981D01*
X147409427Y-76054831D01*
X147440721Y-76252412D01*
X147489259Y-76401798D01*
X147504366Y-76448290D01*
X147597871Y-76631803D01*
X147718932Y-76798430D01*
X147718934Y-76798432D01*
X147718936Y-76798435D01*
X147864564Y-76944063D01*
X147864567Y-76944065D01*
X147864570Y-76944068D01*
X148031197Y-77065129D01*
X148106962Y-77103733D01*
X148158577Y-77152482D01*
X148175643Y-77221397D01*
X148152742Y-77288598D01*
X148106963Y-77328266D01*
X148092517Y-77335627D01*
X148031193Y-77366873D01*
X147864567Y-77487934D01*
X147864564Y-77487936D01*
X147718936Y-77633564D01*
X147718934Y-77633567D01*
X147597873Y-77800193D01*
X147504367Y-77983708D01*
X147504364Y-77983714D01*
X147440721Y-78179587D01*
X147440720Y-78179590D01*
X147440720Y-78179592D01*
X147408500Y-78383019D01*
X147408500Y-78588981D01*
X147431515Y-78734290D01*
X147440721Y-78792412D01*
X147503947Y-78987003D01*
X147504366Y-78988290D01*
X147597871Y-79171803D01*
X147718932Y-79338430D01*
X147718934Y-79338432D01*
X147718936Y-79338435D01*
X147864564Y-79484063D01*
X147864567Y-79484065D01*
X147864570Y-79484068D01*
X148031197Y-79605129D01*
X148106962Y-79643733D01*
X148158577Y-79692482D01*
X148175643Y-79761397D01*
X148152742Y-79828598D01*
X148106963Y-79868266D01*
X148091779Y-79876003D01*
X148031193Y-79906873D01*
X147864567Y-80027934D01*
X147864564Y-80027936D01*
X147718936Y-80173564D01*
X147718934Y-80173567D01*
X147597873Y-80340193D01*
X147504367Y-80523708D01*
X147504364Y-80523714D01*
X147440721Y-80719587D01*
X147440721Y-80719589D01*
X147440720Y-80719592D01*
X147408500Y-80923019D01*
X147408500Y-81128981D01*
X147440720Y-81332408D01*
X147440721Y-81332412D01*
X147501207Y-81518570D01*
X147504366Y-81528290D01*
X147597871Y-81711803D01*
X147718932Y-81878430D01*
X147718934Y-81878432D01*
X147718936Y-81878435D01*
X147864564Y-82024063D01*
X147864567Y-82024065D01*
X147864570Y-82024068D01*
X148031197Y-82145129D01*
X148106962Y-82183733D01*
X148158577Y-82232482D01*
X148175643Y-82301397D01*
X148152742Y-82368598D01*
X148106963Y-82408266D01*
X148063545Y-82430389D01*
X148031193Y-82446873D01*
X147864567Y-82567934D01*
X147864564Y-82567936D01*
X147718936Y-82713564D01*
X147718934Y-82713567D01*
X147597873Y-82880193D01*
X147504367Y-83063708D01*
X147504364Y-83063714D01*
X147440721Y-83259587D01*
X147440721Y-83259589D01*
X147440720Y-83259592D01*
X147408500Y-83463019D01*
X147408500Y-83668981D01*
X147440720Y-83872408D01*
X147440721Y-83872412D01*
X147501207Y-84058570D01*
X147504366Y-84068290D01*
X147597871Y-84251803D01*
X147718932Y-84418430D01*
X147718934Y-84418432D01*
X147718936Y-84418435D01*
X147864564Y-84564063D01*
X147864567Y-84564065D01*
X147864570Y-84564068D01*
X148031197Y-84685129D01*
X148106962Y-84723733D01*
X148158577Y-84772482D01*
X148175643Y-84841397D01*
X148152742Y-84908598D01*
X148106963Y-84948266D01*
X148038033Y-84983387D01*
X148031193Y-84986873D01*
X147864567Y-85107934D01*
X147864564Y-85107936D01*
X147718936Y-85253564D01*
X147718934Y-85253567D01*
X147597873Y-85420193D01*
X147504367Y-85603708D01*
X147504364Y-85603714D01*
X147440721Y-85799587D01*
X147440721Y-85799589D01*
X147440720Y-85799592D01*
X147408500Y-86003019D01*
X147408500Y-86208981D01*
X147428160Y-86333108D01*
X147440721Y-86412412D01*
X147487414Y-86556119D01*
X147504366Y-86608290D01*
X147597871Y-86791803D01*
X147718932Y-86958430D01*
X147718934Y-86958432D01*
X147718936Y-86958435D01*
X147864564Y-87104063D01*
X147864567Y-87104065D01*
X147864570Y-87104068D01*
X148031197Y-87225129D01*
X148106962Y-87263733D01*
X148158577Y-87312482D01*
X148175643Y-87381397D01*
X148152742Y-87448598D01*
X148106963Y-87488266D01*
X148038033Y-87523387D01*
X148031193Y-87526873D01*
X147864567Y-87647934D01*
X147864564Y-87647936D01*
X147718936Y-87793564D01*
X147718934Y-87793567D01*
X147597873Y-87960193D01*
X147504367Y-88143708D01*
X147504364Y-88143714D01*
X147440721Y-88339587D01*
X147440720Y-88339590D01*
X147440720Y-88339592D01*
X147408500Y-88543019D01*
X147408500Y-88748981D01*
X147439732Y-88946167D01*
X147440721Y-88952412D01*
X147501207Y-89138570D01*
X147504366Y-89148290D01*
X147597871Y-89331803D01*
X147718932Y-89498430D01*
X147718934Y-89498432D01*
X147718936Y-89498435D01*
X147864564Y-89644063D01*
X147864567Y-89644065D01*
X147864570Y-89644068D01*
X148031197Y-89765129D01*
X148106962Y-89803733D01*
X148158577Y-89852482D01*
X148175643Y-89921397D01*
X148152742Y-89988598D01*
X148106963Y-90028266D01*
X148066634Y-90048815D01*
X148031193Y-90066873D01*
X147864567Y-90187934D01*
X147864564Y-90187936D01*
X147718936Y-90333564D01*
X147718934Y-90333567D01*
X147597873Y-90500193D01*
X147504367Y-90683708D01*
X147504364Y-90683714D01*
X147440721Y-90879587D01*
X147440721Y-90879589D01*
X147440720Y-90879592D01*
X147408500Y-91083019D01*
X147408500Y-91288981D01*
X147440720Y-91492408D01*
X147440721Y-91492412D01*
X147497483Y-91667108D01*
X147504366Y-91688290D01*
X147597871Y-91871803D01*
X147718932Y-92038430D01*
X147718934Y-92038432D01*
X147718936Y-92038435D01*
X147864564Y-92184063D01*
X147864567Y-92184065D01*
X147864570Y-92184068D01*
X148031197Y-92305129D01*
X148106962Y-92343733D01*
X148158577Y-92392482D01*
X148175643Y-92461397D01*
X148152742Y-92528598D01*
X148106963Y-92568266D01*
X148074186Y-92584967D01*
X148031193Y-92606873D01*
X147864567Y-92727934D01*
X147864564Y-92727936D01*
X147718936Y-92873564D01*
X147718934Y-92873567D01*
X147597873Y-93040193D01*
X147504367Y-93223708D01*
X147504364Y-93223714D01*
X147440721Y-93419587D01*
X147440720Y-93419590D01*
X147440720Y-93419592D01*
X147408500Y-93623019D01*
X147408500Y-93828981D01*
X147440720Y-94032408D01*
X147440721Y-94032412D01*
X147500317Y-94215831D01*
X147504366Y-94228290D01*
X147597871Y-94411803D01*
X147718932Y-94578430D01*
X147718934Y-94578432D01*
X147718936Y-94578435D01*
X147864564Y-94724063D01*
X147864567Y-94724065D01*
X147864570Y-94724068D01*
X148031197Y-94845129D01*
X148106962Y-94883733D01*
X148158577Y-94932482D01*
X148175643Y-95001397D01*
X148152742Y-95068598D01*
X148106963Y-95108266D01*
X148058699Y-95132858D01*
X148031193Y-95146873D01*
X147864567Y-95267934D01*
X147864564Y-95267936D01*
X147718936Y-95413564D01*
X147718934Y-95413567D01*
X147597873Y-95580193D01*
X147504367Y-95763708D01*
X147504364Y-95763714D01*
X147440721Y-95959587D01*
X147440720Y-95959590D01*
X147440720Y-95959592D01*
X147408500Y-96163019D01*
X147408500Y-96368981D01*
X147439846Y-96566890D01*
X147440721Y-96572412D01*
X147490985Y-96727110D01*
X147504366Y-96768290D01*
X147597871Y-96951803D01*
X147718932Y-97118430D01*
X147718934Y-97118432D01*
X147718936Y-97118435D01*
X147864564Y-97264063D01*
X147864567Y-97264065D01*
X147864570Y-97264068D01*
X148031197Y-97385129D01*
X148106962Y-97423733D01*
X148158577Y-97472482D01*
X148175643Y-97541397D01*
X148152742Y-97608598D01*
X148106963Y-97648266D01*
X148038033Y-97683387D01*
X148031193Y-97686873D01*
X147864567Y-97807934D01*
X147864564Y-97807936D01*
X147718936Y-97953564D01*
X147718934Y-97953567D01*
X147597873Y-98120193D01*
X147504367Y-98303708D01*
X147504364Y-98303714D01*
X147440721Y-98499587D01*
X147440720Y-98499590D01*
X147440720Y-98499592D01*
X147408500Y-98703019D01*
X147408500Y-98908981D01*
X147440720Y-99112408D01*
X147440721Y-99112412D01*
X147449552Y-99139592D01*
X147504366Y-99308290D01*
X147597871Y-99491803D01*
X147718932Y-99658430D01*
X147718934Y-99658432D01*
X147718936Y-99658435D01*
X147864564Y-99804063D01*
X147864567Y-99804065D01*
X147864570Y-99804068D01*
X148031197Y-99925129D01*
X148214710Y-100018634D01*
X148410592Y-100082280D01*
X148614019Y-100114500D01*
X148614022Y-100114500D01*
X148819978Y-100114500D01*
X148819981Y-100114500D01*
X149023408Y-100082280D01*
X149219290Y-100018634D01*
X149402803Y-99925129D01*
X149569430Y-99804068D01*
X149715068Y-99658430D01*
X149836129Y-99491803D01*
X149929634Y-99308290D01*
X149993280Y-99112408D01*
X150025500Y-98908981D01*
X150025500Y-98739239D01*
X150045502Y-98671118D01*
X150099158Y-98624625D01*
X150169432Y-98614521D01*
X150234012Y-98644015D01*
X150240595Y-98650144D01*
X154834078Y-103243627D01*
X154834079Y-103243628D01*
X154947372Y-103356921D01*
X154947373Y-103356922D01*
X154947375Y-103356923D01*
X154968073Y-103368873D01*
X155086128Y-103437032D01*
X155240889Y-103478500D01*
X155240891Y-103478500D01*
X165434110Y-103478500D01*
X165434111Y-103478500D01*
X165511491Y-103457766D01*
X165588873Y-103437032D01*
X165727627Y-103356922D01*
X167568248Y-101516301D01*
X167630560Y-101482276D01*
X167701375Y-101487340D01*
X167758211Y-101529887D01*
X167783022Y-101596407D01*
X167777176Y-101644331D01*
X167765721Y-101679585D01*
X167765720Y-101679592D01*
X167733500Y-101883019D01*
X167733500Y-102088981D01*
X167765720Y-102292408D01*
X167829366Y-102488290D01*
X167922871Y-102671803D01*
X168043932Y-102838430D01*
X168043934Y-102838432D01*
X168043936Y-102838435D01*
X168189564Y-102984063D01*
X168189567Y-102984065D01*
X168189570Y-102984068D01*
X168356197Y-103105129D01*
X168431962Y-103143733D01*
X168483577Y-103192482D01*
X168500643Y-103261397D01*
X168477742Y-103328598D01*
X168431963Y-103368266D01*
X168363033Y-103403387D01*
X168356193Y-103406873D01*
X168189567Y-103527934D01*
X168189564Y-103527936D01*
X168043936Y-103673564D01*
X168043934Y-103673567D01*
X167922873Y-103840193D01*
X167829367Y-104023708D01*
X167829364Y-104023714D01*
X167765721Y-104219587D01*
X167765720Y-104219590D01*
X167765720Y-104219592D01*
X167733500Y-104423019D01*
X167733500Y-104628981D01*
X167765720Y-104832408D01*
X167829366Y-105028290D01*
X167922871Y-105211803D01*
X168043932Y-105378430D01*
X168043934Y-105378432D01*
X168043936Y-105378435D01*
X168189564Y-105524063D01*
X168189567Y-105524065D01*
X168189570Y-105524068D01*
X168356197Y-105645129D01*
X168431962Y-105683733D01*
X168483577Y-105732482D01*
X168500643Y-105801397D01*
X168477742Y-105868598D01*
X168431963Y-105908266D01*
X168363033Y-105943387D01*
X168356193Y-105946873D01*
X168189567Y-106067934D01*
X168189564Y-106067936D01*
X168043936Y-106213564D01*
X168043934Y-106213567D01*
X167922873Y-106380193D01*
X167829367Y-106563708D01*
X167829364Y-106563714D01*
X167765721Y-106759587D01*
X167765720Y-106759590D01*
X167765720Y-106759592D01*
X167733500Y-106963019D01*
X167733500Y-107168981D01*
X167765720Y-107372408D01*
X167829366Y-107568290D01*
X167922871Y-107751803D01*
X168043932Y-107918430D01*
X168043934Y-107918432D01*
X168043936Y-107918435D01*
X168189564Y-108064063D01*
X168189567Y-108064065D01*
X168189570Y-108064068D01*
X168356197Y-108185129D01*
X168432511Y-108224013D01*
X168484126Y-108272760D01*
X168501192Y-108341675D01*
X168478292Y-108408876D01*
X168432513Y-108448545D01*
X168356455Y-108487299D01*
X168189892Y-108608315D01*
X168189889Y-108608317D01*
X168044317Y-108753889D01*
X168044315Y-108753892D01*
X167923300Y-108920454D01*
X167829829Y-109103900D01*
X167829826Y-109103906D01*
X167766208Y-109299704D01*
X167757926Y-109352000D01*
X168730314Y-109352000D01*
X168721920Y-109360394D01*
X168669259Y-109451606D01*
X168642000Y-109553339D01*
X168642000Y-109658661D01*
X168669259Y-109760394D01*
X168721920Y-109851606D01*
X168730314Y-109860000D01*
X167757926Y-109860000D01*
X167766208Y-109912295D01*
X167829826Y-110108093D01*
X167829829Y-110108099D01*
X167923300Y-110291545D01*
X168044315Y-110458107D01*
X168044317Y-110458110D01*
X168189889Y-110603682D01*
X168189892Y-110603684D01*
X168356454Y-110724699D01*
X168539900Y-110818170D01*
X168539906Y-110818173D01*
X168735705Y-110881791D01*
X168735717Y-110881794D01*
X168787999Y-110890074D01*
X168788000Y-110890074D01*
X168788000Y-109917686D01*
X168796394Y-109926080D01*
X168887606Y-109978741D01*
X168989339Y-110006000D01*
X169094661Y-110006000D01*
X169196394Y-109978741D01*
X169287606Y-109926080D01*
X169296000Y-109917686D01*
X169296000Y-110890074D01*
X169348282Y-110881794D01*
X169348294Y-110881791D01*
X169544093Y-110818173D01*
X169544099Y-110818170D01*
X169727545Y-110724699D01*
X169894107Y-110603684D01*
X169894110Y-110603682D01*
X170039682Y-110458110D01*
X170039684Y-110458107D01*
X170160699Y-110291545D01*
X170254170Y-110108099D01*
X170254173Y-110108093D01*
X170317791Y-109912295D01*
X170326074Y-109860000D01*
X169353686Y-109860000D01*
X169362080Y-109851606D01*
X169414741Y-109760394D01*
X169442000Y-109658661D01*
X169442000Y-109553339D01*
X169414741Y-109451606D01*
X169362080Y-109360394D01*
X169353686Y-109352000D01*
X170326074Y-109352000D01*
X170317791Y-109299704D01*
X170254173Y-109103906D01*
X170254170Y-109103900D01*
X170160699Y-108920454D01*
X170039684Y-108753892D01*
X170039682Y-108753889D01*
X169894110Y-108608317D01*
X169894107Y-108608315D01*
X169727542Y-108487298D01*
X169651487Y-108448545D01*
X169599872Y-108399797D01*
X169582807Y-108330882D01*
X169605708Y-108263680D01*
X169651485Y-108224014D01*
X169727803Y-108185129D01*
X169894430Y-108064068D01*
X170040068Y-107918430D01*
X170161129Y-107751803D01*
X170254634Y-107568290D01*
X170318280Y-107372408D01*
X170350500Y-107168981D01*
X170350500Y-106963019D01*
X170318280Y-106759592D01*
X170254634Y-106563710D01*
X170161129Y-106380197D01*
X170040068Y-106213570D01*
X170040065Y-106213567D01*
X170040063Y-106213564D01*
X169894435Y-106067936D01*
X169894432Y-106067934D01*
X169894430Y-106067932D01*
X169727803Y-105946871D01*
X169652034Y-105908265D01*
X169600422Y-105859519D01*
X169583356Y-105790604D01*
X169606257Y-105723402D01*
X169652034Y-105683735D01*
X169727803Y-105645129D01*
X169894430Y-105524068D01*
X170040068Y-105378430D01*
X170161129Y-105211803D01*
X170254634Y-105028290D01*
X170318280Y-104832408D01*
X170350500Y-104628981D01*
X170350500Y-104423019D01*
X170318280Y-104219592D01*
X170315330Y-104210512D01*
X170315330Y-104210511D01*
X170313302Y-104139544D01*
X170346066Y-104082481D01*
X170920921Y-103507628D01*
X171001032Y-103368873D01*
X171029593Y-103262280D01*
X171042500Y-103214111D01*
X171042500Y-97531239D01*
X171062502Y-97463118D01*
X171116158Y-97416625D01*
X171186432Y-97406521D01*
X171251012Y-97436015D01*
X171257595Y-97442144D01*
X182936595Y-109121144D01*
X182970621Y-109183456D01*
X182973500Y-109210239D01*
X182973500Y-110454649D01*
X182980009Y-110515196D01*
X182980011Y-110515204D01*
X183031110Y-110652202D01*
X183031112Y-110652207D01*
X183118738Y-110769261D01*
X183235792Y-110856887D01*
X183235794Y-110856888D01*
X183235796Y-110856889D01*
X183294875Y-110878924D01*
X183372795Y-110907988D01*
X183372803Y-110907990D01*
X183433350Y-110914499D01*
X183433355Y-110914499D01*
X183433362Y-110914500D01*
X183433368Y-110914500D01*
X185130632Y-110914500D01*
X185130638Y-110914500D01*
X185130645Y-110914499D01*
X185130649Y-110914499D01*
X185191196Y-110907990D01*
X185191199Y-110907989D01*
X185191201Y-110907989D01*
X185328204Y-110856889D01*
X185379923Y-110818173D01*
X185445261Y-110769261D01*
X185532887Y-110652207D01*
X185532887Y-110652206D01*
X185532889Y-110652204D01*
X185583989Y-110515201D01*
X185590500Y-110454638D01*
X185590500Y-108757362D01*
X185590127Y-108753889D01*
X185583990Y-108696803D01*
X185583988Y-108696795D01*
X185532889Y-108559797D01*
X185532887Y-108559792D01*
X185445261Y-108442738D01*
X185328207Y-108355112D01*
X185328202Y-108355110D01*
X185191204Y-108304011D01*
X185191197Y-108304010D01*
X185179265Y-108302727D01*
X185113673Y-108275556D01*
X185073184Y-108217237D01*
X185070652Y-108146285D01*
X185106881Y-108085228D01*
X185118671Y-108075517D01*
X185134430Y-108064068D01*
X185280068Y-107918430D01*
X185401129Y-107751803D01*
X185494634Y-107568290D01*
X185558280Y-107372408D01*
X185590500Y-107168981D01*
X185590500Y-106963019D01*
X185558280Y-106759592D01*
X185494634Y-106563710D01*
X185401129Y-106380197D01*
X185280068Y-106213570D01*
X185280065Y-106213567D01*
X185280063Y-106213564D01*
X185134435Y-106067936D01*
X185134432Y-106067934D01*
X185134430Y-106067932D01*
X184967803Y-105946871D01*
X184892034Y-105908265D01*
X184840422Y-105859519D01*
X184823356Y-105790604D01*
X184846257Y-105723402D01*
X184892034Y-105683735D01*
X184967803Y-105645129D01*
X185134430Y-105524068D01*
X185280068Y-105378430D01*
X185401129Y-105211803D01*
X185494634Y-105028290D01*
X185558280Y-104832408D01*
X185590500Y-104628981D01*
X185590500Y-104423019D01*
X185558280Y-104219592D01*
X185494634Y-104023710D01*
X185401129Y-103840197D01*
X185280068Y-103673570D01*
X185280065Y-103673567D01*
X185280063Y-103673564D01*
X185134435Y-103527936D01*
X185134432Y-103527934D01*
X185134430Y-103527932D01*
X184967803Y-103406871D01*
X184892034Y-103368265D01*
X184840422Y-103319519D01*
X184823356Y-103250604D01*
X184846257Y-103183402D01*
X184892034Y-103143735D01*
X184967803Y-103105129D01*
X185134430Y-102984068D01*
X185280068Y-102838430D01*
X185401129Y-102671803D01*
X185494634Y-102488290D01*
X185558280Y-102292408D01*
X185590500Y-102088981D01*
X185590500Y-101883019D01*
X185558280Y-101679592D01*
X185494634Y-101483710D01*
X185401129Y-101300197D01*
X185280068Y-101133570D01*
X185280065Y-101133567D01*
X185280063Y-101133564D01*
X185134435Y-100987936D01*
X185134432Y-100987934D01*
X185134430Y-100987932D01*
X184967803Y-100866871D01*
X184892034Y-100828265D01*
X184840422Y-100779519D01*
X184823356Y-100710604D01*
X184846257Y-100643402D01*
X184892034Y-100603735D01*
X184967803Y-100565129D01*
X185134430Y-100444068D01*
X185280068Y-100298430D01*
X185401129Y-100131803D01*
X185494634Y-99948290D01*
X185558280Y-99752408D01*
X185590500Y-99548981D01*
X185590500Y-99343019D01*
X185558280Y-99139592D01*
X185494634Y-98943710D01*
X185401129Y-98760197D01*
X185280068Y-98593570D01*
X185280065Y-98593567D01*
X185280063Y-98593564D01*
X185134435Y-98447936D01*
X185134432Y-98447934D01*
X185134430Y-98447932D01*
X184967803Y-98326871D01*
X184892034Y-98288265D01*
X184840422Y-98239519D01*
X184823356Y-98170604D01*
X184846257Y-98103402D01*
X184892034Y-98063735D01*
X184967803Y-98025129D01*
X185134430Y-97904068D01*
X185280068Y-97758430D01*
X185401129Y-97591803D01*
X185494634Y-97408290D01*
X185558280Y-97212408D01*
X185590500Y-97008981D01*
X185590500Y-96803019D01*
X185558280Y-96599592D01*
X185494634Y-96403710D01*
X185401129Y-96220197D01*
X185280068Y-96053570D01*
X185280065Y-96053567D01*
X185280063Y-96053564D01*
X185134435Y-95907936D01*
X185134432Y-95907934D01*
X185134430Y-95907932D01*
X184967803Y-95786871D01*
X184892034Y-95748265D01*
X184840422Y-95699519D01*
X184823356Y-95630604D01*
X184846257Y-95563402D01*
X184892034Y-95523735D01*
X184967803Y-95485129D01*
X185134430Y-95364068D01*
X185280068Y-95218430D01*
X185401129Y-95051803D01*
X185494634Y-94868290D01*
X185558280Y-94672408D01*
X185590500Y-94468981D01*
X185590500Y-94263019D01*
X185558280Y-94059592D01*
X185555330Y-94050515D01*
X185553299Y-93979552D01*
X185586064Y-93922483D01*
X186982407Y-92526141D01*
X187044717Y-92492118D01*
X187115533Y-92497183D01*
X187172368Y-92539730D01*
X187197179Y-92606250D01*
X187197500Y-92615239D01*
X187197500Y-111506500D01*
X187177498Y-111574621D01*
X187123842Y-111621114D01*
X187071500Y-111632500D01*
X146938500Y-111632500D01*
X146870379Y-111612498D01*
X146823886Y-111558842D01*
X146812500Y-111506500D01*
X146812500Y-58927500D01*
X146832502Y-58859379D01*
X146886158Y-58812886D01*
X146938500Y-58801500D01*
X167157763Y-58801500D01*
X167225884Y-58821502D01*
G37*
%TD.AperFunction*%
%TA.AperFunction,Conductor*%
G36*
X159245832Y-83432502D02*
G01*
X159292325Y-83486158D01*
X159302429Y-83556432D01*
X159294119Y-83586718D01*
X159244908Y-83705526D01*
X159242571Y-83711167D01*
X159242570Y-83711170D01*
X159211500Y-83867367D01*
X159211500Y-84026632D01*
X159226695Y-84103019D01*
X159242570Y-84182831D01*
X159303517Y-84329968D01*
X159390265Y-84459797D01*
X159411480Y-84527549D01*
X159411500Y-84529798D01*
X159411500Y-91619201D01*
X159391498Y-91687322D01*
X159390277Y-91689183D01*
X159367670Y-91723019D01*
X159303516Y-91819033D01*
X159281658Y-91871803D01*
X159242570Y-91966169D01*
X159239450Y-91981854D01*
X159211500Y-92122367D01*
X159211500Y-92281632D01*
X159220781Y-92328290D01*
X159242570Y-92437831D01*
X159303517Y-92584968D01*
X159365966Y-92678430D01*
X159391998Y-92717390D01*
X159392003Y-92717396D01*
X159504603Y-92829996D01*
X159504609Y-92830001D01*
X159504611Y-92830003D01*
X159637032Y-92918483D01*
X159784169Y-92979430D01*
X159940370Y-93010500D01*
X159940371Y-93010500D01*
X160099629Y-93010500D01*
X160099630Y-93010500D01*
X160255831Y-92979430D01*
X160402968Y-92918483D01*
X160535389Y-92830003D01*
X160648003Y-92717389D01*
X160736483Y-92584968D01*
X160797430Y-92437831D01*
X160828500Y-92281630D01*
X160828500Y-92122370D01*
X160797430Y-91966169D01*
X160736483Y-91819032D01*
X160649733Y-91689201D01*
X160628520Y-91621449D01*
X160628500Y-91619201D01*
X160628500Y-84529798D01*
X160648502Y-84461677D01*
X160649705Y-84459840D01*
X160736483Y-84329968D01*
X160797430Y-84182831D01*
X160828500Y-84026630D01*
X160828500Y-83867370D01*
X160797430Y-83711169D01*
X160748373Y-83592738D01*
X160740785Y-83522151D01*
X160772564Y-83458664D01*
X160833622Y-83422436D01*
X160904573Y-83424970D01*
X160953878Y-83455427D01*
X162800404Y-85301954D01*
X162834430Y-85364266D01*
X162829365Y-85435082D01*
X162823576Y-85448252D01*
X162744367Y-85603708D01*
X162744364Y-85603714D01*
X162680721Y-85799587D01*
X162680721Y-85799589D01*
X162680720Y-85799592D01*
X162648500Y-86003019D01*
X162648500Y-86208981D01*
X162668160Y-86333108D01*
X162680721Y-86412412D01*
X162727414Y-86556119D01*
X162744366Y-86608290D01*
X162837871Y-86791803D01*
X162958932Y-86958430D01*
X162958934Y-86958432D01*
X162958936Y-86958435D01*
X163104564Y-87104063D01*
X163104567Y-87104065D01*
X163104570Y-87104068D01*
X163271197Y-87225129D01*
X163346962Y-87263733D01*
X163398577Y-87312482D01*
X163415643Y-87381397D01*
X163392742Y-87448598D01*
X163346963Y-87488266D01*
X163278033Y-87523387D01*
X163271193Y-87526873D01*
X163104567Y-87647934D01*
X163104564Y-87647936D01*
X162958936Y-87793564D01*
X162958934Y-87793567D01*
X162837873Y-87960193D01*
X162744367Y-88143708D01*
X162744364Y-88143714D01*
X162680721Y-88339587D01*
X162680720Y-88339590D01*
X162680720Y-88339592D01*
X162648500Y-88543019D01*
X162648500Y-88748981D01*
X162680720Y-88952408D01*
X162680721Y-88952411D01*
X162683671Y-88961492D01*
X162685695Y-89032460D01*
X162652932Y-89089518D01*
X161692080Y-90050370D01*
X161692075Y-90050376D01*
X161611970Y-90189122D01*
X161611965Y-90189134D01*
X161604698Y-90216255D01*
X161604699Y-90216256D01*
X161582537Y-90298968D01*
X161570500Y-90343890D01*
X161570500Y-99874201D01*
X161550498Y-99942322D01*
X161549266Y-99944202D01*
X161462516Y-100074033D01*
X161401571Y-100221167D01*
X161401570Y-100221170D01*
X161370500Y-100377367D01*
X161370500Y-100536632D01*
X161383847Y-100603733D01*
X161401570Y-100692831D01*
X161413403Y-100721397D01*
X161453120Y-100817282D01*
X161460709Y-100887872D01*
X161428930Y-100951359D01*
X161367872Y-100987586D01*
X161336711Y-100991500D01*
X159435238Y-100991500D01*
X159367117Y-100971498D01*
X159346143Y-100954595D01*
X150021068Y-91629519D01*
X149987042Y-91567207D01*
X149990331Y-91501485D01*
X149993278Y-91492414D01*
X149993277Y-91492414D01*
X149993280Y-91492408D01*
X150025500Y-91288981D01*
X150025500Y-91083019D01*
X149993280Y-90879592D01*
X149934855Y-90699781D01*
X149932828Y-90628817D01*
X149969490Y-90568019D01*
X150033203Y-90536694D01*
X150103736Y-90544786D01*
X150124686Y-90556080D01*
X150239032Y-90632483D01*
X150386169Y-90693430D01*
X150542370Y-90724500D01*
X150542371Y-90724500D01*
X150701629Y-90724500D01*
X150701630Y-90724500D01*
X150857831Y-90693430D01*
X151004968Y-90632483D01*
X151134797Y-90545734D01*
X151202549Y-90524520D01*
X151204798Y-90524500D01*
X153976202Y-90524500D01*
X154044323Y-90544502D01*
X154046159Y-90545705D01*
X154176032Y-90632483D01*
X154323169Y-90693430D01*
X154479370Y-90724500D01*
X154479371Y-90724500D01*
X154638629Y-90724500D01*
X154638630Y-90724500D01*
X154794831Y-90693430D01*
X154941968Y-90632483D01*
X155074389Y-90544003D01*
X155187003Y-90431389D01*
X155275483Y-90298968D01*
X155336430Y-90151831D01*
X155367500Y-89995630D01*
X155367500Y-89836370D01*
X155336430Y-89680169D01*
X155275483Y-89533032D01*
X155187003Y-89400611D01*
X155187001Y-89400609D01*
X155186996Y-89400603D01*
X155074396Y-89288003D01*
X155074390Y-89287998D01*
X155073642Y-89287498D01*
X154941968Y-89199517D01*
X154794831Y-89138570D01*
X154698260Y-89119361D01*
X154638632Y-89107500D01*
X154638630Y-89107500D01*
X154479370Y-89107500D01*
X154479367Y-89107500D01*
X154365530Y-89130144D01*
X154323169Y-89138570D01*
X154176032Y-89199517D01*
X154046202Y-89286265D01*
X153978451Y-89307480D01*
X153976202Y-89307500D01*
X151204798Y-89307500D01*
X151136677Y-89287498D01*
X151134840Y-89286294D01*
X151004968Y-89199517D01*
X150857831Y-89138570D01*
X150722568Y-89111664D01*
X150659660Y-89078757D01*
X150624528Y-89017062D01*
X150628328Y-88946167D01*
X150658054Y-88898993D01*
X156107644Y-83449405D01*
X156169956Y-83415379D01*
X156196739Y-83412500D01*
X159177711Y-83412500D01*
X159245832Y-83432502D01*
G37*
%TD.AperFunction*%
%TA.AperFunction,Conductor*%
G36*
X185547000Y-79516074D02*
G01*
X185599282Y-79507794D01*
X185599294Y-79507791D01*
X185789564Y-79445969D01*
X185860531Y-79443941D01*
X185921329Y-79480604D01*
X185952655Y-79544316D01*
X185954500Y-79565802D01*
X185954500Y-91780759D01*
X185945716Y-91810674D01*
X185939088Y-91841144D01*
X185935273Y-91846239D01*
X185934498Y-91848880D01*
X185917595Y-91869854D01*
X185805595Y-91981854D01*
X185743283Y-92015880D01*
X185672468Y-92010815D01*
X185615632Y-91968268D01*
X185590821Y-91901748D01*
X185590500Y-91892759D01*
X185590500Y-91723022D01*
X185590500Y-91723019D01*
X185558280Y-91519592D01*
X185494634Y-91323710D01*
X185401129Y-91140197D01*
X185280068Y-90973570D01*
X185280065Y-90973567D01*
X185280063Y-90973564D01*
X185134435Y-90827936D01*
X185134432Y-90827934D01*
X185134430Y-90827932D01*
X184967803Y-90706871D01*
X184892034Y-90668265D01*
X184840422Y-90619519D01*
X184823356Y-90550604D01*
X184846257Y-90483402D01*
X184892034Y-90443735D01*
X184967803Y-90405129D01*
X185134430Y-90284068D01*
X185280068Y-90138430D01*
X185401129Y-89971803D01*
X185494634Y-89788290D01*
X185558280Y-89592408D01*
X185590500Y-89388981D01*
X185590500Y-89183019D01*
X185558280Y-88979592D01*
X185494634Y-88783710D01*
X185401129Y-88600197D01*
X185280068Y-88433570D01*
X185280065Y-88433567D01*
X185280063Y-88433564D01*
X185134435Y-88287936D01*
X185134432Y-88287934D01*
X185134430Y-88287932D01*
X184967803Y-88166871D01*
X184892034Y-88128265D01*
X184840422Y-88079519D01*
X184823356Y-88010604D01*
X184846257Y-87943402D01*
X184892034Y-87903735D01*
X184967803Y-87865129D01*
X185134430Y-87744068D01*
X185280068Y-87598430D01*
X185401129Y-87431803D01*
X185494634Y-87248290D01*
X185558280Y-87052408D01*
X185590500Y-86848981D01*
X185590500Y-86643019D01*
X185558280Y-86439592D01*
X185494634Y-86243710D01*
X185401129Y-86060197D01*
X185280068Y-85893570D01*
X185280065Y-85893567D01*
X185280063Y-85893564D01*
X185134435Y-85747936D01*
X185134432Y-85747934D01*
X185134430Y-85747932D01*
X184967803Y-85626871D01*
X184892034Y-85588265D01*
X184840422Y-85539519D01*
X184823356Y-85470604D01*
X184846257Y-85403402D01*
X184892034Y-85363735D01*
X184967803Y-85325129D01*
X185134430Y-85204068D01*
X185280068Y-85058430D01*
X185401129Y-84891803D01*
X185494634Y-84708290D01*
X185558280Y-84512408D01*
X185590500Y-84308981D01*
X185590500Y-84103019D01*
X185558280Y-83899592D01*
X185494634Y-83703710D01*
X185401129Y-83520197D01*
X185280068Y-83353570D01*
X185280065Y-83353567D01*
X185280063Y-83353564D01*
X185134435Y-83207936D01*
X185134432Y-83207934D01*
X185134430Y-83207932D01*
X184992066Y-83104499D01*
X184967806Y-83086873D01*
X184967805Y-83086872D01*
X184967803Y-83086871D01*
X184892034Y-83048265D01*
X184840422Y-82999519D01*
X184823356Y-82930604D01*
X184846257Y-82863402D01*
X184892034Y-82823735D01*
X184967803Y-82785129D01*
X185134430Y-82664068D01*
X185280068Y-82518430D01*
X185401129Y-82351803D01*
X185494634Y-82168290D01*
X185558280Y-81972408D01*
X185590500Y-81768981D01*
X185590500Y-81563019D01*
X185558280Y-81359592D01*
X185494634Y-81163710D01*
X185401129Y-80980197D01*
X185280068Y-80813570D01*
X185280065Y-80813567D01*
X185280063Y-80813564D01*
X185134435Y-80667936D01*
X185134432Y-80667934D01*
X185134430Y-80667932D01*
X184967803Y-80546871D01*
X184784290Y-80453366D01*
X184784287Y-80453365D01*
X184784285Y-80453364D01*
X184588413Y-80389721D01*
X184588409Y-80389720D01*
X184588408Y-80389720D01*
X184540363Y-80382110D01*
X184476213Y-80351698D01*
X184438686Y-80291429D01*
X184439700Y-80220440D01*
X184470983Y-80168566D01*
X184509922Y-80129627D01*
X184568634Y-80027934D01*
X184590030Y-79990876D01*
X184590030Y-79990875D01*
X184590032Y-79990872D01*
X184631500Y-79836110D01*
X184631500Y-79675890D01*
X184631500Y-79675889D01*
X184631500Y-79565802D01*
X184651502Y-79497681D01*
X184705158Y-79451188D01*
X184775432Y-79441084D01*
X184796436Y-79445969D01*
X184986705Y-79507791D01*
X184986717Y-79507794D01*
X185038999Y-79516074D01*
X185039000Y-79516074D01*
X185039000Y-78543686D01*
X185047394Y-78552080D01*
X185138606Y-78604741D01*
X185240339Y-78632000D01*
X185345661Y-78632000D01*
X185447394Y-78604741D01*
X185538606Y-78552080D01*
X185547000Y-78543686D01*
X185547000Y-79516074D01*
G37*
%TD.AperFunction*%
%TA.AperFunction,Conductor*%
G36*
X170307000Y-79516074D02*
G01*
X170359282Y-79507794D01*
X170359294Y-79507791D01*
X170549564Y-79445969D01*
X170620531Y-79443941D01*
X170681329Y-79480604D01*
X170712655Y-79544316D01*
X170714500Y-79565802D01*
X170714500Y-80141761D01*
X170694498Y-80209882D01*
X170640842Y-80256375D01*
X170570568Y-80266479D01*
X170505988Y-80236985D01*
X170499405Y-80230856D01*
X169835905Y-79567356D01*
X169801879Y-79505044D01*
X169799000Y-79478261D01*
X169799000Y-78543686D01*
X169807394Y-78552080D01*
X169898606Y-78604741D01*
X170000339Y-78632000D01*
X170105661Y-78632000D01*
X170207394Y-78604741D01*
X170298606Y-78552080D01*
X170307000Y-78543686D01*
X170307000Y-79516074D01*
G37*
%TD.AperFunction*%
%TA.AperFunction,Conductor*%
G36*
X167782000Y-61599074D02*
G01*
X167834282Y-61590794D01*
X167834294Y-61590791D01*
X168030093Y-61527173D01*
X168030099Y-61527170D01*
X168213545Y-61433699D01*
X168380107Y-61312684D01*
X168380110Y-61312682D01*
X168525682Y-61167110D01*
X168525684Y-61167107D01*
X168646699Y-61000545D01*
X168685453Y-60924488D01*
X168734201Y-60872873D01*
X168803116Y-60855807D01*
X168870318Y-60878708D01*
X168909985Y-60924486D01*
X168948871Y-61000803D01*
X169069932Y-61167430D01*
X169069934Y-61167432D01*
X169069936Y-61167435D01*
X169215564Y-61313063D01*
X169215567Y-61313065D01*
X169215570Y-61313068D01*
X169382197Y-61434129D01*
X169565710Y-61527634D01*
X169761592Y-61591280D01*
X169965019Y-61623500D01*
X169965022Y-61623500D01*
X170134760Y-61623500D01*
X170202881Y-61643502D01*
X170249374Y-61697158D01*
X170259478Y-61767432D01*
X170229984Y-61832012D01*
X170223855Y-61838595D01*
X165756083Y-66306366D01*
X165756075Y-66306376D01*
X165675967Y-66445127D01*
X165675968Y-66445128D01*
X165668821Y-66471803D01*
X165634500Y-66599890D01*
X165634500Y-77042111D01*
X165653459Y-77112870D01*
X165653460Y-77112870D01*
X165675968Y-77196872D01*
X165675970Y-77196877D01*
X165756075Y-77335623D01*
X165756083Y-77335633D01*
X166208931Y-77788481D01*
X166242957Y-77850793D01*
X166239672Y-77916504D01*
X166236721Y-77925586D01*
X166236720Y-77925591D01*
X166236720Y-77925592D01*
X166204500Y-78129019D01*
X166204500Y-78334981D01*
X166227090Y-78477606D01*
X166236721Y-78538412D01*
X166300364Y-78734285D01*
X166300369Y-78734297D01*
X166334600Y-78801479D01*
X166347704Y-78871256D01*
X166321003Y-78937040D01*
X166266562Y-78975417D01*
X166266887Y-78976202D01*
X166263402Y-78977645D01*
X166262976Y-78977946D01*
X166261629Y-78978379D01*
X166200819Y-79003568D01*
X166114032Y-79039517D01*
X165984202Y-79126265D01*
X165916451Y-79147480D01*
X165914202Y-79147500D01*
X165291327Y-79147500D01*
X165223206Y-79127498D01*
X165176713Y-79073842D01*
X165166609Y-79003568D01*
X165171491Y-78982571D01*
X165233280Y-78792408D01*
X165265500Y-78588981D01*
X165265500Y-78383019D01*
X165233280Y-78179592D01*
X165169634Y-77983710D01*
X165076129Y-77800197D01*
X164955068Y-77633570D01*
X164955065Y-77633567D01*
X164955063Y-77633564D01*
X164809435Y-77487936D01*
X164809432Y-77487934D01*
X164809430Y-77487932D01*
X164642803Y-77366871D01*
X164567034Y-77328265D01*
X164515422Y-77279519D01*
X164498356Y-77210604D01*
X164521257Y-77143402D01*
X164567034Y-77103735D01*
X164642803Y-77065129D01*
X164809430Y-76944068D01*
X164955068Y-76798430D01*
X165076129Y-76631803D01*
X165169634Y-76448290D01*
X165233280Y-76252408D01*
X165265500Y-76048981D01*
X165265500Y-75843019D01*
X165233280Y-75639592D01*
X165169634Y-75443710D01*
X165076129Y-75260197D01*
X164955068Y-75093570D01*
X164955065Y-75093567D01*
X164955063Y-75093564D01*
X164809435Y-74947936D01*
X164809432Y-74947934D01*
X164809430Y-74947932D01*
X164642803Y-74826871D01*
X164567034Y-74788265D01*
X164515422Y-74739519D01*
X164498356Y-74670604D01*
X164521257Y-74603402D01*
X164567034Y-74563735D01*
X164642803Y-74525129D01*
X164809430Y-74404068D01*
X164955068Y-74258430D01*
X165076129Y-74091803D01*
X165169634Y-73908290D01*
X165233280Y-73712408D01*
X165265500Y-73508981D01*
X165265500Y-73303019D01*
X165233280Y-73099592D01*
X165169634Y-72903710D01*
X165076129Y-72720197D01*
X164955068Y-72553570D01*
X164955065Y-72553567D01*
X164955063Y-72553564D01*
X164809435Y-72407936D01*
X164809432Y-72407934D01*
X164809430Y-72407932D01*
X164642803Y-72286871D01*
X164566486Y-72247985D01*
X164514873Y-72199239D01*
X164497807Y-72130324D01*
X164520708Y-72063122D01*
X164566488Y-72023453D01*
X164642545Y-71984699D01*
X164809107Y-71863684D01*
X164809110Y-71863682D01*
X164954682Y-71718110D01*
X164954684Y-71718107D01*
X165075699Y-71551545D01*
X165169170Y-71368099D01*
X165169173Y-71368093D01*
X165232791Y-71172295D01*
X165241074Y-71120000D01*
X164387703Y-71120000D01*
X164422925Y-71058993D01*
X164457000Y-70931826D01*
X164457000Y-70800174D01*
X164422925Y-70673007D01*
X164387703Y-70612000D01*
X165241074Y-70612000D01*
X165232791Y-70559704D01*
X165169173Y-70363906D01*
X165169170Y-70363900D01*
X165075699Y-70180454D01*
X164954684Y-70013892D01*
X164954682Y-70013889D01*
X164809110Y-69868317D01*
X164809107Y-69868315D01*
X164642542Y-69747298D01*
X164566487Y-69708545D01*
X164514872Y-69659797D01*
X164497807Y-69590882D01*
X164520708Y-69523680D01*
X164566485Y-69484014D01*
X164642803Y-69445129D01*
X164809430Y-69324068D01*
X164955068Y-69178430D01*
X165076129Y-69011803D01*
X165169634Y-68828290D01*
X165233280Y-68632408D01*
X165265500Y-68428981D01*
X165265500Y-68223019D01*
X165233280Y-68019592D01*
X165169634Y-67823710D01*
X165076129Y-67640197D01*
X164955068Y-67473570D01*
X164955065Y-67473567D01*
X164955063Y-67473564D01*
X164809435Y-67327936D01*
X164809432Y-67327934D01*
X164809430Y-67327932D01*
X164642803Y-67206871D01*
X164567034Y-67168265D01*
X164515422Y-67119519D01*
X164498356Y-67050604D01*
X164521257Y-66983402D01*
X164567034Y-66943735D01*
X164642803Y-66905129D01*
X164809430Y-66784068D01*
X164955068Y-66638430D01*
X165076129Y-66471803D01*
X165169634Y-66288290D01*
X165233280Y-66092408D01*
X165265500Y-65888981D01*
X165265500Y-65683019D01*
X165233280Y-65479592D01*
X165169634Y-65283710D01*
X165076129Y-65100197D01*
X164955068Y-64933570D01*
X164955065Y-64933567D01*
X164955063Y-64933564D01*
X164809435Y-64787936D01*
X164809432Y-64787934D01*
X164809431Y-64787933D01*
X164809430Y-64787932D01*
X164642803Y-64666871D01*
X164567034Y-64628265D01*
X164515422Y-64579519D01*
X164498356Y-64510604D01*
X164521257Y-64443402D01*
X164567034Y-64403735D01*
X164642803Y-64365129D01*
X164809430Y-64244068D01*
X164955068Y-64098430D01*
X165076129Y-63931803D01*
X165169634Y-63748290D01*
X165233280Y-63552408D01*
X165265500Y-63348981D01*
X165265500Y-63143019D01*
X165233280Y-62939592D01*
X165169634Y-62743710D01*
X165117148Y-62640702D01*
X165104045Y-62570926D01*
X165130745Y-62505141D01*
X165188773Y-62464235D01*
X165229416Y-62457500D01*
X165787202Y-62457500D01*
X165855323Y-62477502D01*
X165857159Y-62478705D01*
X165987032Y-62565483D01*
X166134169Y-62626430D01*
X166290370Y-62657500D01*
X166290371Y-62657500D01*
X166449629Y-62657500D01*
X166449630Y-62657500D01*
X166605831Y-62626430D01*
X166752968Y-62565483D01*
X166885389Y-62477003D01*
X166998003Y-62364389D01*
X167086483Y-62231968D01*
X167147430Y-62084831D01*
X167178500Y-61928630D01*
X167178500Y-61769370D01*
X167175687Y-61755226D01*
X167182015Y-61684512D01*
X167225570Y-61628445D01*
X167249493Y-61620005D01*
X167274000Y-61599074D01*
X167274000Y-60626686D01*
X167282394Y-60635080D01*
X167373606Y-60687741D01*
X167475339Y-60715000D01*
X167580661Y-60715000D01*
X167682394Y-60687741D01*
X167773606Y-60635080D01*
X167782000Y-60626686D01*
X167782000Y-61599074D01*
G37*
%TD.AperFunction*%
%TA.AperFunction,Conductor*%
G36*
X169556428Y-71826491D02*
G01*
X169746592Y-71888280D01*
X169950019Y-71920500D01*
X169950022Y-71920500D01*
X170155978Y-71920500D01*
X170155981Y-71920500D01*
X170359408Y-71888280D01*
X170361076Y-71887738D01*
X170368485Y-71885331D01*
X170439453Y-71883302D01*
X170496519Y-71916068D01*
X170677595Y-72097144D01*
X170711621Y-72159456D01*
X170714500Y-72186239D01*
X170714500Y-76898197D01*
X170694498Y-76966318D01*
X170640842Y-77012811D01*
X170570568Y-77022915D01*
X170549564Y-77018030D01*
X170359295Y-76956208D01*
X170359296Y-76956208D01*
X170307000Y-76947925D01*
X170307000Y-77920314D01*
X170298606Y-77911920D01*
X170207394Y-77859259D01*
X170105661Y-77832000D01*
X170000339Y-77832000D01*
X169898606Y-77859259D01*
X169807394Y-77911920D01*
X169799000Y-77920314D01*
X169799000Y-76947925D01*
X169746704Y-76956208D01*
X169556436Y-77018030D01*
X169485468Y-77020057D01*
X169424671Y-76983395D01*
X169393345Y-76919683D01*
X169391500Y-76898197D01*
X169391500Y-71946327D01*
X169411502Y-71878206D01*
X169465158Y-71831713D01*
X169535432Y-71821609D01*
X169556428Y-71826491D01*
G37*
%TD.AperFunction*%
%TA.AperFunction,Conductor*%
G36*
X185756882Y-71940502D02*
G01*
X185777856Y-71957405D01*
X185917595Y-72097144D01*
X185951621Y-72159456D01*
X185954500Y-72186239D01*
X185954500Y-76898197D01*
X185934498Y-76966318D01*
X185880842Y-77012811D01*
X185810568Y-77022915D01*
X185789564Y-77018030D01*
X185599295Y-76956208D01*
X185599296Y-76956208D01*
X185547000Y-76947925D01*
X185547000Y-77920314D01*
X185538606Y-77911920D01*
X185447394Y-77859259D01*
X185345661Y-77832000D01*
X185240339Y-77832000D01*
X185138606Y-77859259D01*
X185047394Y-77911920D01*
X185039000Y-77920314D01*
X185039000Y-76947925D01*
X184986704Y-76956208D01*
X184796436Y-77018030D01*
X184725468Y-77020057D01*
X184664671Y-76983395D01*
X184633345Y-76919683D01*
X184631500Y-76898197D01*
X184631500Y-72046500D01*
X184651502Y-71978379D01*
X184705158Y-71931886D01*
X184757500Y-71920500D01*
X185688761Y-71920500D01*
X185756882Y-71940502D01*
G37*
%TD.AperFunction*%
%TA.AperFunction,Conductor*%
G36*
X187139621Y-58821502D02*
G01*
X187186114Y-58875158D01*
X187197500Y-58927500D01*
X187197500Y-71351760D01*
X187177498Y-71419881D01*
X187123842Y-71466374D01*
X187053568Y-71476478D01*
X186988988Y-71446984D01*
X186982405Y-71440855D01*
X186638405Y-71096855D01*
X186604379Y-71034543D01*
X186601500Y-71007760D01*
X186601500Y-69763367D01*
X186601499Y-69763350D01*
X186594990Y-69702803D01*
X186594988Y-69702795D01*
X186557271Y-69601675D01*
X186543889Y-69565796D01*
X186543888Y-69565794D01*
X186543887Y-69565792D01*
X186456261Y-69448738D01*
X186339207Y-69361112D01*
X186339202Y-69361110D01*
X186202204Y-69310011D01*
X186202196Y-69310009D01*
X186141649Y-69303500D01*
X186141638Y-69303500D01*
X186029212Y-69303500D01*
X185961091Y-69283498D01*
X185914598Y-69229842D01*
X185904494Y-69159568D01*
X185933988Y-69094988D01*
X185972010Y-69065233D01*
X185993803Y-69054129D01*
X186160430Y-68933068D01*
X186306068Y-68787430D01*
X186427129Y-68620803D01*
X186520634Y-68437290D01*
X186584280Y-68241408D01*
X186616500Y-68037981D01*
X186616500Y-67832019D01*
X186584280Y-67628592D01*
X186520634Y-67432710D01*
X186427129Y-67249197D01*
X186306068Y-67082570D01*
X186306065Y-67082567D01*
X186306063Y-67082564D01*
X186160435Y-66936936D01*
X186160432Y-66936934D01*
X186160430Y-66936932D01*
X185993803Y-66815871D01*
X185810290Y-66722366D01*
X185810287Y-66722365D01*
X185810285Y-66722364D01*
X185614412Y-66658721D01*
X185614410Y-66658720D01*
X185614408Y-66658720D01*
X185410981Y-66626500D01*
X185205019Y-66626500D01*
X185001592Y-66658720D01*
X185001590Y-66658720D01*
X185001587Y-66658721D01*
X184805714Y-66722364D01*
X184805708Y-66722367D01*
X184622193Y-66815873D01*
X184455567Y-66936934D01*
X184455564Y-66936936D01*
X184309936Y-67082564D01*
X184309934Y-67082567D01*
X184188873Y-67249193D01*
X184150267Y-67324962D01*
X184101518Y-67376577D01*
X184032603Y-67393643D01*
X183965402Y-67370742D01*
X183925733Y-67324962D01*
X183887129Y-67249197D01*
X183766068Y-67082570D01*
X183766065Y-67082567D01*
X183766063Y-67082564D01*
X183620435Y-66936936D01*
X183620432Y-66936934D01*
X183620430Y-66936932D01*
X183453803Y-66815871D01*
X183270290Y-66722366D01*
X183270287Y-66722365D01*
X183270285Y-66722364D01*
X183074412Y-66658721D01*
X183074410Y-66658720D01*
X183074408Y-66658720D01*
X182870981Y-66626500D01*
X182665019Y-66626500D01*
X182461592Y-66658720D01*
X182461590Y-66658720D01*
X182461587Y-66658721D01*
X182265714Y-66722364D01*
X182265708Y-66722367D01*
X182082193Y-66815873D01*
X181915567Y-66936934D01*
X181915564Y-66936936D01*
X181769936Y-67082564D01*
X181769934Y-67082567D01*
X181648873Y-67249193D01*
X181610267Y-67324962D01*
X181561518Y-67376577D01*
X181492603Y-67393643D01*
X181425402Y-67370742D01*
X181385733Y-67324962D01*
X181347129Y-67249197D01*
X181226068Y-67082570D01*
X181226065Y-67082567D01*
X181226063Y-67082564D01*
X181080435Y-66936936D01*
X181080432Y-66936934D01*
X181080430Y-66936932D01*
X180913803Y-66815871D01*
X180730290Y-66722366D01*
X180730287Y-66722365D01*
X180730285Y-66722364D01*
X180534412Y-66658721D01*
X180534410Y-66658720D01*
X180534408Y-66658720D01*
X180330981Y-66626500D01*
X180125019Y-66626500D01*
X179921592Y-66658720D01*
X179921590Y-66658720D01*
X179921587Y-66658721D01*
X179725714Y-66722364D01*
X179725708Y-66722367D01*
X179542193Y-66815873D01*
X179375567Y-66936934D01*
X179375564Y-66936936D01*
X179229936Y-67082564D01*
X179229934Y-67082567D01*
X179108873Y-67249193D01*
X179070267Y-67324962D01*
X179021518Y-67376577D01*
X178952603Y-67393643D01*
X178885402Y-67370742D01*
X178845733Y-67324962D01*
X178807129Y-67249197D01*
X178686068Y-67082570D01*
X178686065Y-67082567D01*
X178686063Y-67082564D01*
X178540435Y-66936936D01*
X178540432Y-66936934D01*
X178540430Y-66936932D01*
X178373803Y-66815871D01*
X178190290Y-66722366D01*
X178190287Y-66722365D01*
X178190285Y-66722364D01*
X177994412Y-66658721D01*
X177994410Y-66658720D01*
X177994408Y-66658720D01*
X177841046Y-66634429D01*
X177776894Y-66604017D01*
X177739367Y-66543749D01*
X177740381Y-66472760D01*
X177771663Y-66420885D01*
X177781143Y-66411405D01*
X178174921Y-66017628D01*
X178255032Y-65878872D01*
X178296500Y-65724111D01*
X178296500Y-61550729D01*
X178316502Y-61482608D01*
X178365298Y-61438462D01*
X178373803Y-61434129D01*
X178540430Y-61313068D01*
X178686068Y-61167430D01*
X178807129Y-61000803D01*
X178845734Y-60925034D01*
X178894481Y-60873422D01*
X178963396Y-60856356D01*
X179030598Y-60879257D01*
X179070264Y-60925034D01*
X179108871Y-61000803D01*
X179229932Y-61167430D01*
X179229934Y-61167432D01*
X179229936Y-61167435D01*
X179375564Y-61313063D01*
X179375567Y-61313065D01*
X179375570Y-61313068D01*
X179542197Y-61434129D01*
X179725710Y-61527634D01*
X179921592Y-61591280D01*
X180125019Y-61623500D01*
X180125022Y-61623500D01*
X180330978Y-61623500D01*
X180330981Y-61623500D01*
X180534408Y-61591280D01*
X180730290Y-61527634D01*
X180913803Y-61434129D01*
X181080430Y-61313068D01*
X181226068Y-61167430D01*
X181347129Y-61000803D01*
X181386014Y-60924486D01*
X181434759Y-60872874D01*
X181503674Y-60855807D01*
X181570876Y-60878707D01*
X181610545Y-60924487D01*
X181649298Y-61000542D01*
X181770315Y-61167107D01*
X181770317Y-61167110D01*
X181915889Y-61312682D01*
X181915892Y-61312684D01*
X182082454Y-61433699D01*
X182265900Y-61527170D01*
X182265906Y-61527173D01*
X182461705Y-61590791D01*
X182461717Y-61590794D01*
X182513999Y-61599074D01*
X182514000Y-61599074D01*
X182514000Y-60626686D01*
X182522394Y-60635080D01*
X182613606Y-60687741D01*
X182715339Y-60715000D01*
X182820661Y-60715000D01*
X182922394Y-60687741D01*
X183013606Y-60635080D01*
X183022000Y-60626686D01*
X183022000Y-61599074D01*
X183074282Y-61590794D01*
X183074294Y-61590791D01*
X183270093Y-61527173D01*
X183270099Y-61527170D01*
X183453545Y-61433699D01*
X183620107Y-61312684D01*
X183620110Y-61312682D01*
X183765682Y-61167110D01*
X183765684Y-61167107D01*
X183886699Y-61000545D01*
X183925453Y-60924488D01*
X183974201Y-60872873D01*
X184043116Y-60855807D01*
X184110318Y-60878708D01*
X184149985Y-60924486D01*
X184188871Y-61000803D01*
X184309932Y-61167430D01*
X184309934Y-61167432D01*
X184309936Y-61167435D01*
X184455564Y-61313063D01*
X184455567Y-61313065D01*
X184455570Y-61313068D01*
X184622197Y-61434129D01*
X184805710Y-61527634D01*
X185001592Y-61591280D01*
X185205019Y-61623500D01*
X185205022Y-61623500D01*
X185410978Y-61623500D01*
X185410981Y-61623500D01*
X185614408Y-61591280D01*
X185810290Y-61527634D01*
X185993803Y-61434129D01*
X186160430Y-61313068D01*
X186306068Y-61167430D01*
X186427129Y-61000803D01*
X186520634Y-60817290D01*
X186584280Y-60621408D01*
X186616500Y-60417981D01*
X186616500Y-60212019D01*
X186584280Y-60008592D01*
X186520634Y-59812710D01*
X186427129Y-59629197D01*
X186306068Y-59462570D01*
X186306065Y-59462567D01*
X186306063Y-59462564D01*
X186160435Y-59316936D01*
X186160432Y-59316934D01*
X186160430Y-59316932D01*
X186034999Y-59225802D01*
X185993806Y-59195873D01*
X185993805Y-59195872D01*
X185993803Y-59195871D01*
X185810290Y-59102366D01*
X185640915Y-59047332D01*
X185582311Y-59007259D01*
X185554674Y-58941862D01*
X185566781Y-58871906D01*
X185614787Y-58819600D01*
X185679853Y-58801500D01*
X187071500Y-58801500D01*
X187139621Y-58821502D01*
G37*
%TD.AperFunction*%
%TA.AperFunction,Conductor*%
G36*
X175888323Y-62604502D02*
G01*
X175890159Y-62605705D01*
X176020032Y-62692483D01*
X176167169Y-62753430D01*
X176323370Y-62784500D01*
X176323371Y-62784500D01*
X176482629Y-62784500D01*
X176482630Y-62784500D01*
X176638831Y-62753430D01*
X176785968Y-62692483D01*
X176883501Y-62627313D01*
X176951251Y-62606100D01*
X177019718Y-62624883D01*
X177067161Y-62677700D01*
X177079500Y-62732080D01*
X177079500Y-65339760D01*
X177059498Y-65407881D01*
X177042595Y-65428855D01*
X175916083Y-66555366D01*
X175916075Y-66555376D01*
X175840949Y-66685499D01*
X175789566Y-66734492D01*
X175719853Y-66747928D01*
X175674630Y-66734767D01*
X175650290Y-66722366D01*
X175650288Y-66722365D01*
X175454412Y-66658721D01*
X175454410Y-66658720D01*
X175454408Y-66658720D01*
X175250981Y-66626500D01*
X175045019Y-66626500D01*
X174841592Y-66658720D01*
X174841590Y-66658720D01*
X174841587Y-66658721D01*
X174645714Y-66722364D01*
X174645708Y-66722367D01*
X174462193Y-66815873D01*
X174295567Y-66936934D01*
X174295564Y-66936936D01*
X174149936Y-67082564D01*
X174149934Y-67082567D01*
X174028873Y-67249193D01*
X173990267Y-67324962D01*
X173941518Y-67376577D01*
X173872603Y-67393643D01*
X173805402Y-67370742D01*
X173765733Y-67324962D01*
X173727129Y-67249197D01*
X173606068Y-67082570D01*
X173606065Y-67082567D01*
X173606063Y-67082564D01*
X173460435Y-66936936D01*
X173460432Y-66936934D01*
X173460430Y-66936932D01*
X173293803Y-66815871D01*
X173110290Y-66722366D01*
X173110287Y-66722365D01*
X173110285Y-66722364D01*
X172914412Y-66658721D01*
X172914410Y-66658720D01*
X172914408Y-66658720D01*
X172710981Y-66626500D01*
X172505019Y-66626500D01*
X172301592Y-66658720D01*
X172301590Y-66658720D01*
X172301587Y-66658721D01*
X172126438Y-66715631D01*
X172105710Y-66722366D01*
X172101002Y-66723896D01*
X172100680Y-66722906D01*
X172035121Y-66729951D01*
X171971636Y-66698168D01*
X171935412Y-66637108D01*
X171931500Y-66605954D01*
X171931500Y-64820239D01*
X171951502Y-64752118D01*
X171968405Y-64731144D01*
X174078144Y-62621405D01*
X174140456Y-62587379D01*
X174167239Y-62584500D01*
X175820202Y-62584500D01*
X175888323Y-62604502D01*
G37*
%TD.AperFunction*%
%TD*%
M02*
