%TF.GenerationSoftware,KiCad,Pcbnew,9.0.6+1*%
%TF.CreationDate,2025-12-07T02:18:26+01:00*%
%TF.ProjectId,EEPROM_Arduino_Programmer,45455052-4f4d-45f4-9172-6475696e6f5f,rev?*%
%TF.SameCoordinates,Original*%
%TF.FileFunction,Soldermask,Bot*%
%TF.FilePolarity,Negative*%
%FSLAX46Y46*%
G04 Gerber Fmt 4.6, Leading zero omitted, Abs format (unit mm)*
G04 Created by KiCad (PCBNEW 9.0.6+1) date 2025-12-07 02:18:26*
%MOMM*%
%LPD*%
G01*
G04 APERTURE LIST*
%ADD10R,1.600000X1.600000*%
%ADD11O,1.600000X1.600000*%
G04 APERTURE END LIST*
D10*
%TO.C,Arduino Nano*%
X148717000Y-63246000D03*
D11*
X148717000Y-65786000D03*
X148717000Y-68326000D03*
X148717000Y-70866000D03*
X148717000Y-73406000D03*
X148717000Y-75946000D03*
X148717000Y-78486000D03*
X148717000Y-81026000D03*
X148717000Y-83566000D03*
X148717000Y-86106000D03*
X148717000Y-88646000D03*
X148717000Y-91186000D03*
X148717000Y-93726000D03*
X148717000Y-96266000D03*
X148717000Y-98806000D03*
X163957000Y-98806000D03*
X163957000Y-96266000D03*
X163957000Y-93726000D03*
X163957000Y-91186000D03*
X163957000Y-88646000D03*
X163957000Y-86106000D03*
X163957000Y-83566000D03*
X163957000Y-81026000D03*
X163957000Y-78486000D03*
X163957000Y-75946000D03*
X163957000Y-73406000D03*
X163957000Y-70866000D03*
X163957000Y-68326000D03*
X163957000Y-65786000D03*
X163957000Y-63246000D03*
%TD*%
D10*
%TO.C,U3*%
X184282000Y-109606000D03*
D11*
X184282000Y-107066000D03*
X184282000Y-104526000D03*
X184282000Y-101986000D03*
X184282000Y-99446000D03*
X184282000Y-96906000D03*
X184282000Y-94366000D03*
X184282000Y-91826000D03*
X184282000Y-89286000D03*
X184282000Y-86746000D03*
X184282000Y-84206000D03*
X184282000Y-81666000D03*
X169042000Y-81666000D03*
X169042000Y-84206000D03*
X169042000Y-86746000D03*
X169042000Y-89286000D03*
X169042000Y-91826000D03*
X169042000Y-94366000D03*
X169042000Y-96906000D03*
X169042000Y-99446000D03*
X169042000Y-101986000D03*
X169042000Y-104526000D03*
X169042000Y-107066000D03*
X169042000Y-109606000D03*
%TD*%
D10*
%TO.C,U2*%
X167528000Y-67935000D03*
D11*
X170068000Y-67935000D03*
X172608000Y-67935000D03*
X175148000Y-67935000D03*
X177688000Y-67935000D03*
X180228000Y-67935000D03*
X182768000Y-67935000D03*
X185308000Y-67935000D03*
X185308000Y-60315000D03*
X182768000Y-60315000D03*
X180228000Y-60315000D03*
X177688000Y-60315000D03*
X175148000Y-60315000D03*
X172608000Y-60315000D03*
X170068000Y-60315000D03*
X167528000Y-60315000D03*
%TD*%
D10*
%TO.C,U1*%
X185293000Y-70612000D03*
D11*
X182753000Y-70612000D03*
X180213000Y-70612000D03*
X177673000Y-70612000D03*
X175133000Y-70612000D03*
X172593000Y-70612000D03*
X170053000Y-70612000D03*
X167513000Y-70612000D03*
X167513000Y-78232000D03*
X170053000Y-78232000D03*
X172593000Y-78232000D03*
X175133000Y-78232000D03*
X177673000Y-78232000D03*
X180213000Y-78232000D03*
X182753000Y-78232000D03*
X185293000Y-78232000D03*
%TD*%
M02*
