M48
; DRILL file {KiCad 9.0.6+1} date 2025-12-07T02:18:29+0100
; FORMAT={-:-/ absolute / metric / decimal}
; #@! TF.CreationDate,2025-12-07T02:18:29+01:00
; #@! TF.GenerationSoftware,Kicad,Pcbnew,9.0.6+1
; #@! TF.FileFunction,Plated,1,2,PTH
FMAT,2
METRIC
; #@! TA.AperFunction,Plated,PTH,ViaDrill
T1C0.200
; #@! TA.AperFunction,Plated,PTH,ViaDrill
T2C0.300
; #@! TA.AperFunction,Plated,PTH,ComponentDrill
T3C0.800
; #@! TA.AperFunction,Plated,PTH,ComponentDrill
T4C1.000
%
G90
G05
T1
X150.622Y-89.916
X151.638Y-84.836
X151.638Y-86.106
X154.559Y-89.916
X155.829Y-103.759
X159.385Y-79.248
X160.02Y-83.947
X160.02Y-92.202
X161.798Y-75.819
X161.798Y-78.359
X162.179Y-100.457
X162.306Y-61.849
X162.433Y-72.644
X162.433Y-77.851
X166.243Y-82.296
X166.37Y-61.849
X166.497Y-79.756
X171.922Y-80.899
X171.922Y-93.98
X172.593Y-81.915
X173.116Y-63.642
X175.26Y-84.201
X175.26Y-86.868
X176.403Y-61.976
T2
X155.575Y-66.294
X155.575Y-84.074
X155.829Y-91.313
X168.402Y-62.865
X170.053Y-74.676
X176.911Y-63.627
X177.673Y-74.676
X177.673Y-82.931
X177.673Y-94.361
X182.132Y-72.517
T3
X167.513Y-70.612
X167.513Y-78.232
X167.528Y-60.315
X167.528Y-67.935
X169.042Y-81.666
X169.042Y-84.206
X169.042Y-86.746
X169.042Y-89.286
X169.042Y-91.826
X169.042Y-94.366
X169.042Y-96.906
X169.042Y-99.446
X169.042Y-101.986
X169.042Y-104.526
X169.042Y-107.066
X169.042Y-109.606
X170.053Y-70.612
X170.053Y-78.232
X170.068Y-60.315
X170.068Y-67.935
X172.593Y-70.612
X172.593Y-78.232
X172.608Y-60.315
X172.608Y-67.935
X175.133Y-70.612
X175.133Y-78.232
X175.148Y-60.315
X175.148Y-67.935
X177.673Y-70.612
X177.673Y-78.232
X177.688Y-60.315
X177.688Y-67.935
X180.213Y-70.612
X180.213Y-78.232
X180.228Y-60.315
X180.228Y-67.935
X182.753Y-70.612
X182.753Y-78.232
X182.768Y-60.315
X182.768Y-67.935
X184.282Y-81.666
X184.282Y-84.206
X184.282Y-86.746
X184.282Y-89.286
X184.282Y-91.826
X184.282Y-94.366
X184.282Y-96.906
X184.282Y-99.446
X184.282Y-101.986
X184.282Y-104.526
X184.282Y-107.066
X184.282Y-109.606
X185.293Y-70.612
X185.293Y-78.232
X185.308Y-60.315
X185.308Y-67.935
T4
X148.717Y-63.246
X148.717Y-65.786
X148.717Y-68.326
X148.717Y-70.866
X148.717Y-73.406
X148.717Y-75.946
X148.717Y-78.486
X148.717Y-81.026
X148.717Y-83.566
X148.717Y-86.106
X148.717Y-88.646
X148.717Y-91.186
X148.717Y-93.726
X148.717Y-96.266
X148.717Y-98.806
X163.957Y-63.246
X163.957Y-65.786
X163.957Y-68.326
X163.957Y-70.866
X163.957Y-73.406
X163.957Y-75.946
X163.957Y-78.486
X163.957Y-81.026
X163.957Y-83.566
X163.957Y-86.106
X163.957Y-88.646
X163.957Y-91.186
X163.957Y-93.726
X163.957Y-96.266
X163.957Y-98.806
M30
