M48
; DRILL file {KiCad 6.0.4+dfsg-1~bpo11+1} date Thu 07 Apr 2022 01:30:09 AM +0430
; FORMAT={-:-/ absolute / inch / decimal}
; #@! TF.CreationDate,2022-04-07T01:30:09+04:30
; #@! TF.GenerationSoftware,Kicad,Pcbnew,6.0.4+dfsg-1~bpo11+1
; #@! TF.FileFunction,Plated,1,2,PTH
FMAT,2
INCH
; #@! TA.AperFunction,Plated,PTH,ViaDrill
T1C0.0079
; #@! TA.AperFunction,Plated,PTH,ViaDrill
T2C0.0118
; #@! TA.AperFunction,Plated,PTH,ComponentDrill
T3C0.0315
; #@! TA.AperFunction,Plated,PTH,ComponentDrill
T4C0.0394
%
G90
G05
T1
X5.93Y-3.54
X5.97Y-3.34
X5.97Y-3.39
X6.085Y-3.54
X6.135Y-4.085
X6.275Y-3.12
X6.3Y-3.305
X6.3Y-3.63
X6.37Y-2.985
X6.37Y-3.085
X6.385Y-3.955
X6.39Y-2.435
X6.395Y-2.86
X6.395Y-3.065
X6.545Y-3.24
X6.55Y-2.435
X6.555Y-3.14
X6.7686Y-3.185
X6.7686Y-3.7
X6.795Y-3.225
X6.8156Y-2.5056
X6.9Y-3.315
X6.9Y-3.42
X6.945Y-2.44
T2
X6.125Y-2.61
X6.125Y-3.31
X6.135Y-3.595
X6.63Y-2.475
X6.695Y-2.94
X6.965Y-2.505
X6.995Y-2.94
X6.995Y-3.265
X6.995Y-3.715
X7.1706Y-2.855
T3
X6.595Y-2.78
X6.595Y-3.08
X6.5956Y-2.3746
X6.5956Y-2.6746
X6.6552Y-3.2152
X6.6552Y-3.3152
X6.6552Y-3.4152
X6.6552Y-3.5152
X6.6552Y-3.6152
X6.6552Y-3.7152
X6.6552Y-3.8152
X6.6552Y-3.9152
X6.6552Y-4.0152
X6.6552Y-4.1152
X6.6552Y-4.2152
X6.6552Y-4.3152
X6.695Y-2.78
X6.695Y-3.08
X6.6956Y-2.3746
X6.6956Y-2.6746
X6.795Y-2.78
X6.795Y-3.08
X6.7956Y-2.3746
X6.7956Y-2.6746
X6.895Y-2.78
X6.895Y-3.08
X6.8956Y-2.3746
X6.8956Y-2.6746
X6.995Y-2.78
X6.995Y-3.08
X6.9956Y-2.3746
X6.9956Y-2.6746
X7.095Y-2.78
X7.095Y-3.08
X7.0956Y-2.3746
X7.0956Y-2.6746
X7.195Y-2.78
X7.195Y-3.08
X7.1956Y-2.3746
X7.1956Y-2.6746
X7.2552Y-3.2152
X7.2552Y-3.3152
X7.2552Y-3.4152
X7.2552Y-3.5152
X7.2552Y-3.6152
X7.2552Y-3.7152
X7.2552Y-3.8152
X7.2552Y-3.9152
X7.2552Y-4.0152
X7.2552Y-4.1152
X7.2552Y-4.2152
X7.2552Y-4.3152
X7.295Y-2.78
X7.295Y-3.08
X7.2956Y-2.3746
X7.2956Y-2.6746
T4
X5.855Y-2.49
X5.855Y-2.59
X5.855Y-2.69
X5.855Y-2.79
X5.855Y-2.89
X5.855Y-2.99
X5.855Y-3.09
X5.855Y-3.19
X5.855Y-3.29
X5.855Y-3.39
X5.855Y-3.49
X5.855Y-3.59
X5.855Y-3.69
X5.855Y-3.79
X5.855Y-3.89
X6.455Y-2.49
X6.455Y-2.59
X6.455Y-2.69
X6.455Y-2.79
X6.455Y-2.89
X6.455Y-2.99
X6.455Y-3.09
X6.455Y-3.19
X6.455Y-3.29
X6.455Y-3.39
X6.455Y-3.49
X6.455Y-3.59
X6.455Y-3.69
X6.455Y-3.79
X6.455Y-3.89
T0
M30
