%TF.GenerationSoftware,KiCad,Pcbnew,9.0.6+1*%
%TF.CreationDate,2025-12-07T02:18:26+01:00*%
%TF.ProjectId,EEPROM_Arduino_Programmer,45455052-4f4d-45f4-9172-6475696e6f5f,rev?*%
%TF.SameCoordinates,Original*%
%TF.FileFunction,Legend,Top*%
%TF.FilePolarity,Positive*%
%FSLAX46Y46*%
G04 Gerber Fmt 4.6, Leading zero omitted, Abs format (unit mm)*
G04 Created by KiCad (PCBNEW 9.0.6+1) date 2025-12-07 02:18:26*
%MOMM*%
%LPD*%
G01*
G04 APERTURE LIST*
%ADD10C,0.150000*%
%ADD11C,0.120000*%
G04 APERTURE END LIST*
D10*
X174117000Y-98425000D02*
X179197000Y-98425000D01*
X179197000Y-106045000D01*
X174117000Y-106045000D01*
X174117000Y-98425000D01*
X160528000Y-94615000D02*
X160528000Y-101600000D01*
X175768000Y-106045000D02*
G75*
G02*
X177546000Y-106045000I889000J0D01*
G01*
X152400000Y-94615000D02*
X160528000Y-94615000D01*
X152400000Y-101600000D02*
X152400000Y-94615000D01*
X155202095Y-98260819D02*
X155202095Y-99070342D01*
X155202095Y-99070342D02*
X155249714Y-99165580D01*
X155249714Y-99165580D02*
X155297333Y-99213200D01*
X155297333Y-99213200D02*
X155392571Y-99260819D01*
X155392571Y-99260819D02*
X155583047Y-99260819D01*
X155583047Y-99260819D02*
X155678285Y-99213200D01*
X155678285Y-99213200D02*
X155725904Y-99165580D01*
X155725904Y-99165580D02*
X155773523Y-99070342D01*
X155773523Y-99070342D02*
X155773523Y-98260819D01*
X156202095Y-99213200D02*
X156344952Y-99260819D01*
X156344952Y-99260819D02*
X156583047Y-99260819D01*
X156583047Y-99260819D02*
X156678285Y-99213200D01*
X156678285Y-99213200D02*
X156725904Y-99165580D01*
X156725904Y-99165580D02*
X156773523Y-99070342D01*
X156773523Y-99070342D02*
X156773523Y-98975104D01*
X156773523Y-98975104D02*
X156725904Y-98879866D01*
X156725904Y-98879866D02*
X156678285Y-98832247D01*
X156678285Y-98832247D02*
X156583047Y-98784628D01*
X156583047Y-98784628D02*
X156392571Y-98737009D01*
X156392571Y-98737009D02*
X156297333Y-98689390D01*
X156297333Y-98689390D02*
X156249714Y-98641771D01*
X156249714Y-98641771D02*
X156202095Y-98546533D01*
X156202095Y-98546533D02*
X156202095Y-98451295D01*
X156202095Y-98451295D02*
X156249714Y-98356057D01*
X156249714Y-98356057D02*
X156297333Y-98308438D01*
X156297333Y-98308438D02*
X156392571Y-98260819D01*
X156392571Y-98260819D02*
X156630666Y-98260819D01*
X156630666Y-98260819D02*
X156773523Y-98308438D01*
X157535428Y-98737009D02*
X157678285Y-98784628D01*
X157678285Y-98784628D02*
X157725904Y-98832247D01*
X157725904Y-98832247D02*
X157773523Y-98927485D01*
X157773523Y-98927485D02*
X157773523Y-99070342D01*
X157773523Y-99070342D02*
X157725904Y-99165580D01*
X157725904Y-99165580D02*
X157678285Y-99213200D01*
X157678285Y-99213200D02*
X157583047Y-99260819D01*
X157583047Y-99260819D02*
X157202095Y-99260819D01*
X157202095Y-99260819D02*
X157202095Y-98260819D01*
X157202095Y-98260819D02*
X157535428Y-98260819D01*
X157535428Y-98260819D02*
X157630666Y-98308438D01*
X157630666Y-98308438D02*
X157678285Y-98356057D01*
X157678285Y-98356057D02*
X157725904Y-98451295D01*
X157725904Y-98451295D02*
X157725904Y-98546533D01*
X157725904Y-98546533D02*
X157678285Y-98641771D01*
X157678285Y-98641771D02*
X157630666Y-98689390D01*
X157630666Y-98689390D02*
X157535428Y-98737009D01*
X157535428Y-98737009D02*
X157202095Y-98737009D01*
X167738095Y-73954819D02*
X168404761Y-73954819D01*
X168404761Y-73954819D02*
X167976190Y-74954819D01*
X169214285Y-74288152D02*
X169214285Y-74954819D01*
X168976190Y-73907200D02*
X168738095Y-74621485D01*
X168738095Y-74621485D02*
X169357142Y-74621485D01*
X169738095Y-74954819D02*
X169738095Y-73954819D01*
X169738095Y-74431009D02*
X170309523Y-74431009D01*
X170309523Y-74954819D02*
X170309523Y-73954819D01*
X171357142Y-74859580D02*
X171309523Y-74907200D01*
X171309523Y-74907200D02*
X171166666Y-74954819D01*
X171166666Y-74954819D02*
X171071428Y-74954819D01*
X171071428Y-74954819D02*
X170928571Y-74907200D01*
X170928571Y-74907200D02*
X170833333Y-74811961D01*
X170833333Y-74811961D02*
X170785714Y-74716723D01*
X170785714Y-74716723D02*
X170738095Y-74526247D01*
X170738095Y-74526247D02*
X170738095Y-74383390D01*
X170738095Y-74383390D02*
X170785714Y-74192914D01*
X170785714Y-74192914D02*
X170833333Y-74097676D01*
X170833333Y-74097676D02*
X170928571Y-74002438D01*
X170928571Y-74002438D02*
X171071428Y-73954819D01*
X171071428Y-73954819D02*
X171166666Y-73954819D01*
X171166666Y-73954819D02*
X171309523Y-74002438D01*
X171309523Y-74002438D02*
X171357142Y-74050057D01*
X172261904Y-73954819D02*
X171785714Y-73954819D01*
X171785714Y-73954819D02*
X171738095Y-74431009D01*
X171738095Y-74431009D02*
X171785714Y-74383390D01*
X171785714Y-74383390D02*
X171880952Y-74335771D01*
X171880952Y-74335771D02*
X172119047Y-74335771D01*
X172119047Y-74335771D02*
X172214285Y-74383390D01*
X172214285Y-74383390D02*
X172261904Y-74431009D01*
X172261904Y-74431009D02*
X172309523Y-74526247D01*
X172309523Y-74526247D02*
X172309523Y-74764342D01*
X172309523Y-74764342D02*
X172261904Y-74859580D01*
X172261904Y-74859580D02*
X172214285Y-74907200D01*
X172214285Y-74907200D02*
X172119047Y-74954819D01*
X172119047Y-74954819D02*
X171880952Y-74954819D01*
X171880952Y-74954819D02*
X171785714Y-74907200D01*
X171785714Y-74907200D02*
X171738095Y-74859580D01*
X172785714Y-74954819D02*
X172976190Y-74954819D01*
X172976190Y-74954819D02*
X173071428Y-74907200D01*
X173071428Y-74907200D02*
X173119047Y-74859580D01*
X173119047Y-74859580D02*
X173214285Y-74716723D01*
X173214285Y-74716723D02*
X173261904Y-74526247D01*
X173261904Y-74526247D02*
X173261904Y-74145295D01*
X173261904Y-74145295D02*
X173214285Y-74050057D01*
X173214285Y-74050057D02*
X173166666Y-74002438D01*
X173166666Y-74002438D02*
X173071428Y-73954819D01*
X173071428Y-73954819D02*
X172880952Y-73954819D01*
X172880952Y-73954819D02*
X172785714Y-74002438D01*
X172785714Y-74002438D02*
X172738095Y-74050057D01*
X172738095Y-74050057D02*
X172690476Y-74145295D01*
X172690476Y-74145295D02*
X172690476Y-74383390D01*
X172690476Y-74383390D02*
X172738095Y-74478628D01*
X172738095Y-74478628D02*
X172785714Y-74526247D01*
X172785714Y-74526247D02*
X172880952Y-74573866D01*
X172880952Y-74573866D02*
X173071428Y-74573866D01*
X173071428Y-74573866D02*
X173166666Y-74526247D01*
X173166666Y-74526247D02*
X173214285Y-74478628D01*
X173214285Y-74478628D02*
X173261904Y-74383390D01*
X174166666Y-73954819D02*
X173690476Y-73954819D01*
X173690476Y-73954819D02*
X173642857Y-74431009D01*
X173642857Y-74431009D02*
X173690476Y-74383390D01*
X173690476Y-74383390D02*
X173785714Y-74335771D01*
X173785714Y-74335771D02*
X174023809Y-74335771D01*
X174023809Y-74335771D02*
X174119047Y-74383390D01*
X174119047Y-74383390D02*
X174166666Y-74431009D01*
X174166666Y-74431009D02*
X174214285Y-74526247D01*
X174214285Y-74526247D02*
X174214285Y-74764342D01*
X174214285Y-74764342D02*
X174166666Y-74859580D01*
X174166666Y-74859580D02*
X174119047Y-74907200D01*
X174119047Y-74907200D02*
X174023809Y-74954819D01*
X174023809Y-74954819D02*
X173785714Y-74954819D01*
X173785714Y-74954819D02*
X173690476Y-74907200D01*
X173690476Y-74907200D02*
X173642857Y-74859580D01*
X174442714Y-88831057D02*
X174490333Y-88783438D01*
X174490333Y-88783438D02*
X174585571Y-88735819D01*
X174585571Y-88735819D02*
X174823666Y-88735819D01*
X174823666Y-88735819D02*
X174918904Y-88783438D01*
X174918904Y-88783438D02*
X174966523Y-88831057D01*
X174966523Y-88831057D02*
X175014142Y-88926295D01*
X175014142Y-88926295D02*
X175014142Y-89021533D01*
X175014142Y-89021533D02*
X174966523Y-89164390D01*
X174966523Y-89164390D02*
X174395095Y-89735819D01*
X174395095Y-89735819D02*
X175014142Y-89735819D01*
X175585571Y-89164390D02*
X175490333Y-89116771D01*
X175490333Y-89116771D02*
X175442714Y-89069152D01*
X175442714Y-89069152D02*
X175395095Y-88973914D01*
X175395095Y-88973914D02*
X175395095Y-88926295D01*
X175395095Y-88926295D02*
X175442714Y-88831057D01*
X175442714Y-88831057D02*
X175490333Y-88783438D01*
X175490333Y-88783438D02*
X175585571Y-88735819D01*
X175585571Y-88735819D02*
X175776047Y-88735819D01*
X175776047Y-88735819D02*
X175871285Y-88783438D01*
X175871285Y-88783438D02*
X175918904Y-88831057D01*
X175918904Y-88831057D02*
X175966523Y-88926295D01*
X175966523Y-88926295D02*
X175966523Y-88973914D01*
X175966523Y-88973914D02*
X175918904Y-89069152D01*
X175918904Y-89069152D02*
X175871285Y-89116771D01*
X175871285Y-89116771D02*
X175776047Y-89164390D01*
X175776047Y-89164390D02*
X175585571Y-89164390D01*
X175585571Y-89164390D02*
X175490333Y-89212009D01*
X175490333Y-89212009D02*
X175442714Y-89259628D01*
X175442714Y-89259628D02*
X175395095Y-89354866D01*
X175395095Y-89354866D02*
X175395095Y-89545342D01*
X175395095Y-89545342D02*
X175442714Y-89640580D01*
X175442714Y-89640580D02*
X175490333Y-89688200D01*
X175490333Y-89688200D02*
X175585571Y-89735819D01*
X175585571Y-89735819D02*
X175776047Y-89735819D01*
X175776047Y-89735819D02*
X175871285Y-89688200D01*
X175871285Y-89688200D02*
X175918904Y-89640580D01*
X175918904Y-89640580D02*
X175966523Y-89545342D01*
X175966523Y-89545342D02*
X175966523Y-89354866D01*
X175966523Y-89354866D02*
X175918904Y-89259628D01*
X175918904Y-89259628D02*
X175871285Y-89212009D01*
X175871285Y-89212009D02*
X175776047Y-89164390D01*
X176966523Y-89640580D02*
X176918904Y-89688200D01*
X176918904Y-89688200D02*
X176776047Y-89735819D01*
X176776047Y-89735819D02*
X176680809Y-89735819D01*
X176680809Y-89735819D02*
X176537952Y-89688200D01*
X176537952Y-89688200D02*
X176442714Y-89592961D01*
X176442714Y-89592961D02*
X176395095Y-89497723D01*
X176395095Y-89497723D02*
X176347476Y-89307247D01*
X176347476Y-89307247D02*
X176347476Y-89164390D01*
X176347476Y-89164390D02*
X176395095Y-88973914D01*
X176395095Y-88973914D02*
X176442714Y-88878676D01*
X176442714Y-88878676D02*
X176537952Y-88783438D01*
X176537952Y-88783438D02*
X176680809Y-88735819D01*
X176680809Y-88735819D02*
X176776047Y-88735819D01*
X176776047Y-88735819D02*
X176918904Y-88783438D01*
X176918904Y-88783438D02*
X176966523Y-88831057D01*
X177918904Y-89735819D02*
X177347476Y-89735819D01*
X177633190Y-89735819D02*
X177633190Y-88735819D01*
X177633190Y-88735819D02*
X177537952Y-88878676D01*
X177537952Y-88878676D02*
X177442714Y-88973914D01*
X177442714Y-88973914D02*
X177347476Y-89021533D01*
X178776047Y-88735819D02*
X178585571Y-88735819D01*
X178585571Y-88735819D02*
X178490333Y-88783438D01*
X178490333Y-88783438D02*
X178442714Y-88831057D01*
X178442714Y-88831057D02*
X178347476Y-88973914D01*
X178347476Y-88973914D02*
X178299857Y-89164390D01*
X178299857Y-89164390D02*
X178299857Y-89545342D01*
X178299857Y-89545342D02*
X178347476Y-89640580D01*
X178347476Y-89640580D02*
X178395095Y-89688200D01*
X178395095Y-89688200D02*
X178490333Y-89735819D01*
X178490333Y-89735819D02*
X178680809Y-89735819D01*
X178680809Y-89735819D02*
X178776047Y-89688200D01*
X178776047Y-89688200D02*
X178823666Y-89640580D01*
X178823666Y-89640580D02*
X178871285Y-89545342D01*
X178871285Y-89545342D02*
X178871285Y-89307247D01*
X178871285Y-89307247D02*
X178823666Y-89212009D01*
X178823666Y-89212009D02*
X178776047Y-89164390D01*
X178776047Y-89164390D02*
X178680809Y-89116771D01*
X178680809Y-89116771D02*
X178490333Y-89116771D01*
X178490333Y-89116771D02*
X178395095Y-89164390D01*
X178395095Y-89164390D02*
X178347476Y-89212009D01*
X178347476Y-89212009D02*
X178299857Y-89307247D01*
X149535523Y-107500009D02*
X149868856Y-107500009D01*
X150011713Y-108023819D02*
X149535523Y-108023819D01*
X149535523Y-108023819D02*
X149535523Y-107023819D01*
X149535523Y-107023819D02*
X150011713Y-107023819D01*
X150440285Y-107500009D02*
X150773618Y-107500009D01*
X150916475Y-108023819D02*
X150440285Y-108023819D01*
X150440285Y-108023819D02*
X150440285Y-107023819D01*
X150440285Y-107023819D02*
X150916475Y-107023819D01*
X151345047Y-108023819D02*
X151345047Y-107023819D01*
X151345047Y-107023819D02*
X151725999Y-107023819D01*
X151725999Y-107023819D02*
X151821237Y-107071438D01*
X151821237Y-107071438D02*
X151868856Y-107119057D01*
X151868856Y-107119057D02*
X151916475Y-107214295D01*
X151916475Y-107214295D02*
X151916475Y-107357152D01*
X151916475Y-107357152D02*
X151868856Y-107452390D01*
X151868856Y-107452390D02*
X151821237Y-107500009D01*
X151821237Y-107500009D02*
X151725999Y-107547628D01*
X151725999Y-107547628D02*
X151345047Y-107547628D01*
X152916475Y-108023819D02*
X152583142Y-107547628D01*
X152345047Y-108023819D02*
X152345047Y-107023819D01*
X152345047Y-107023819D02*
X152725999Y-107023819D01*
X152725999Y-107023819D02*
X152821237Y-107071438D01*
X152821237Y-107071438D02*
X152868856Y-107119057D01*
X152868856Y-107119057D02*
X152916475Y-107214295D01*
X152916475Y-107214295D02*
X152916475Y-107357152D01*
X152916475Y-107357152D02*
X152868856Y-107452390D01*
X152868856Y-107452390D02*
X152821237Y-107500009D01*
X152821237Y-107500009D02*
X152725999Y-107547628D01*
X152725999Y-107547628D02*
X152345047Y-107547628D01*
X153535523Y-107023819D02*
X153725999Y-107023819D01*
X153725999Y-107023819D02*
X153821237Y-107071438D01*
X153821237Y-107071438D02*
X153916475Y-107166676D01*
X153916475Y-107166676D02*
X153964094Y-107357152D01*
X153964094Y-107357152D02*
X153964094Y-107690485D01*
X153964094Y-107690485D02*
X153916475Y-107880961D01*
X153916475Y-107880961D02*
X153821237Y-107976200D01*
X153821237Y-107976200D02*
X153725999Y-108023819D01*
X153725999Y-108023819D02*
X153535523Y-108023819D01*
X153535523Y-108023819D02*
X153440285Y-107976200D01*
X153440285Y-107976200D02*
X153345047Y-107880961D01*
X153345047Y-107880961D02*
X153297428Y-107690485D01*
X153297428Y-107690485D02*
X153297428Y-107357152D01*
X153297428Y-107357152D02*
X153345047Y-107166676D01*
X153345047Y-107166676D02*
X153440285Y-107071438D01*
X153440285Y-107071438D02*
X153535523Y-107023819D01*
X154392666Y-108023819D02*
X154392666Y-107023819D01*
X154392666Y-107023819D02*
X154725999Y-107738104D01*
X154725999Y-107738104D02*
X155059332Y-107023819D01*
X155059332Y-107023819D02*
X155059332Y-108023819D01*
X156297428Y-108023819D02*
X156297428Y-107023819D01*
X156297428Y-107023819D02*
X156678380Y-107023819D01*
X156678380Y-107023819D02*
X156773618Y-107071438D01*
X156773618Y-107071438D02*
X156821237Y-107119057D01*
X156821237Y-107119057D02*
X156868856Y-107214295D01*
X156868856Y-107214295D02*
X156868856Y-107357152D01*
X156868856Y-107357152D02*
X156821237Y-107452390D01*
X156821237Y-107452390D02*
X156773618Y-107500009D01*
X156773618Y-107500009D02*
X156678380Y-107547628D01*
X156678380Y-107547628D02*
X156297428Y-107547628D01*
X157297428Y-108023819D02*
X157297428Y-107357152D01*
X157297428Y-107547628D02*
X157345047Y-107452390D01*
X157345047Y-107452390D02*
X157392666Y-107404771D01*
X157392666Y-107404771D02*
X157487904Y-107357152D01*
X157487904Y-107357152D02*
X157583142Y-107357152D01*
X158059333Y-108023819D02*
X157964095Y-107976200D01*
X157964095Y-107976200D02*
X157916476Y-107928580D01*
X157916476Y-107928580D02*
X157868857Y-107833342D01*
X157868857Y-107833342D02*
X157868857Y-107547628D01*
X157868857Y-107547628D02*
X157916476Y-107452390D01*
X157916476Y-107452390D02*
X157964095Y-107404771D01*
X157964095Y-107404771D02*
X158059333Y-107357152D01*
X158059333Y-107357152D02*
X158202190Y-107357152D01*
X158202190Y-107357152D02*
X158297428Y-107404771D01*
X158297428Y-107404771D02*
X158345047Y-107452390D01*
X158345047Y-107452390D02*
X158392666Y-107547628D01*
X158392666Y-107547628D02*
X158392666Y-107833342D01*
X158392666Y-107833342D02*
X158345047Y-107928580D01*
X158345047Y-107928580D02*
X158297428Y-107976200D01*
X158297428Y-107976200D02*
X158202190Y-108023819D01*
X158202190Y-108023819D02*
X158059333Y-108023819D01*
X159249809Y-107357152D02*
X159249809Y-108166676D01*
X159249809Y-108166676D02*
X159202190Y-108261914D01*
X159202190Y-108261914D02*
X159154571Y-108309533D01*
X159154571Y-108309533D02*
X159059333Y-108357152D01*
X159059333Y-108357152D02*
X158916476Y-108357152D01*
X158916476Y-108357152D02*
X158821238Y-108309533D01*
X159249809Y-107976200D02*
X159154571Y-108023819D01*
X159154571Y-108023819D02*
X158964095Y-108023819D01*
X158964095Y-108023819D02*
X158868857Y-107976200D01*
X158868857Y-107976200D02*
X158821238Y-107928580D01*
X158821238Y-107928580D02*
X158773619Y-107833342D01*
X158773619Y-107833342D02*
X158773619Y-107547628D01*
X158773619Y-107547628D02*
X158821238Y-107452390D01*
X158821238Y-107452390D02*
X158868857Y-107404771D01*
X158868857Y-107404771D02*
X158964095Y-107357152D01*
X158964095Y-107357152D02*
X159154571Y-107357152D01*
X159154571Y-107357152D02*
X159249809Y-107404771D01*
X159726000Y-108023819D02*
X159726000Y-107357152D01*
X159726000Y-107547628D02*
X159773619Y-107452390D01*
X159773619Y-107452390D02*
X159821238Y-107404771D01*
X159821238Y-107404771D02*
X159916476Y-107357152D01*
X159916476Y-107357152D02*
X160011714Y-107357152D01*
X160773619Y-108023819D02*
X160773619Y-107500009D01*
X160773619Y-107500009D02*
X160726000Y-107404771D01*
X160726000Y-107404771D02*
X160630762Y-107357152D01*
X160630762Y-107357152D02*
X160440286Y-107357152D01*
X160440286Y-107357152D02*
X160345048Y-107404771D01*
X160773619Y-107976200D02*
X160678381Y-108023819D01*
X160678381Y-108023819D02*
X160440286Y-108023819D01*
X160440286Y-108023819D02*
X160345048Y-107976200D01*
X160345048Y-107976200D02*
X160297429Y-107880961D01*
X160297429Y-107880961D02*
X160297429Y-107785723D01*
X160297429Y-107785723D02*
X160345048Y-107690485D01*
X160345048Y-107690485D02*
X160440286Y-107642866D01*
X160440286Y-107642866D02*
X160678381Y-107642866D01*
X160678381Y-107642866D02*
X160773619Y-107595247D01*
X161249810Y-108023819D02*
X161249810Y-107357152D01*
X161249810Y-107452390D02*
X161297429Y-107404771D01*
X161297429Y-107404771D02*
X161392667Y-107357152D01*
X161392667Y-107357152D02*
X161535524Y-107357152D01*
X161535524Y-107357152D02*
X161630762Y-107404771D01*
X161630762Y-107404771D02*
X161678381Y-107500009D01*
X161678381Y-107500009D02*
X161678381Y-108023819D01*
X161678381Y-107500009D02*
X161726000Y-107404771D01*
X161726000Y-107404771D02*
X161821238Y-107357152D01*
X161821238Y-107357152D02*
X161964095Y-107357152D01*
X161964095Y-107357152D02*
X162059334Y-107404771D01*
X162059334Y-107404771D02*
X162106953Y-107500009D01*
X162106953Y-107500009D02*
X162106953Y-108023819D01*
X162583143Y-108023819D02*
X162583143Y-107357152D01*
X162583143Y-107452390D02*
X162630762Y-107404771D01*
X162630762Y-107404771D02*
X162726000Y-107357152D01*
X162726000Y-107357152D02*
X162868857Y-107357152D01*
X162868857Y-107357152D02*
X162964095Y-107404771D01*
X162964095Y-107404771D02*
X163011714Y-107500009D01*
X163011714Y-107500009D02*
X163011714Y-108023819D01*
X163011714Y-107500009D02*
X163059333Y-107404771D01*
X163059333Y-107404771D02*
X163154571Y-107357152D01*
X163154571Y-107357152D02*
X163297428Y-107357152D01*
X163297428Y-107357152D02*
X163392667Y-107404771D01*
X163392667Y-107404771D02*
X163440286Y-107500009D01*
X163440286Y-107500009D02*
X163440286Y-108023819D01*
X164297428Y-107976200D02*
X164202190Y-108023819D01*
X164202190Y-108023819D02*
X164011714Y-108023819D01*
X164011714Y-108023819D02*
X163916476Y-107976200D01*
X163916476Y-107976200D02*
X163868857Y-107880961D01*
X163868857Y-107880961D02*
X163868857Y-107500009D01*
X163868857Y-107500009D02*
X163916476Y-107404771D01*
X163916476Y-107404771D02*
X164011714Y-107357152D01*
X164011714Y-107357152D02*
X164202190Y-107357152D01*
X164202190Y-107357152D02*
X164297428Y-107404771D01*
X164297428Y-107404771D02*
X164345047Y-107500009D01*
X164345047Y-107500009D02*
X164345047Y-107595247D01*
X164345047Y-107595247D02*
X163868857Y-107690485D01*
X164773619Y-108023819D02*
X164773619Y-107357152D01*
X164773619Y-107547628D02*
X164821238Y-107452390D01*
X164821238Y-107452390D02*
X164868857Y-107404771D01*
X164868857Y-107404771D02*
X164964095Y-107357152D01*
X164964095Y-107357152D02*
X165059333Y-107357152D01*
X178238095Y-63454819D02*
X178904761Y-63454819D01*
X178904761Y-63454819D02*
X178476190Y-64454819D01*
X179714285Y-63788152D02*
X179714285Y-64454819D01*
X179476190Y-63407200D02*
X179238095Y-64121485D01*
X179238095Y-64121485D02*
X179857142Y-64121485D01*
X180238095Y-64454819D02*
X180238095Y-63454819D01*
X180238095Y-63931009D02*
X180809523Y-63931009D01*
X180809523Y-64454819D02*
X180809523Y-63454819D01*
X181857142Y-64359580D02*
X181809523Y-64407200D01*
X181809523Y-64407200D02*
X181666666Y-64454819D01*
X181666666Y-64454819D02*
X181571428Y-64454819D01*
X181571428Y-64454819D02*
X181428571Y-64407200D01*
X181428571Y-64407200D02*
X181333333Y-64311961D01*
X181333333Y-64311961D02*
X181285714Y-64216723D01*
X181285714Y-64216723D02*
X181238095Y-64026247D01*
X181238095Y-64026247D02*
X181238095Y-63883390D01*
X181238095Y-63883390D02*
X181285714Y-63692914D01*
X181285714Y-63692914D02*
X181333333Y-63597676D01*
X181333333Y-63597676D02*
X181428571Y-63502438D01*
X181428571Y-63502438D02*
X181571428Y-63454819D01*
X181571428Y-63454819D02*
X181666666Y-63454819D01*
X181666666Y-63454819D02*
X181809523Y-63502438D01*
X181809523Y-63502438D02*
X181857142Y-63550057D01*
X182761904Y-63454819D02*
X182285714Y-63454819D01*
X182285714Y-63454819D02*
X182238095Y-63931009D01*
X182238095Y-63931009D02*
X182285714Y-63883390D01*
X182285714Y-63883390D02*
X182380952Y-63835771D01*
X182380952Y-63835771D02*
X182619047Y-63835771D01*
X182619047Y-63835771D02*
X182714285Y-63883390D01*
X182714285Y-63883390D02*
X182761904Y-63931009D01*
X182761904Y-63931009D02*
X182809523Y-64026247D01*
X182809523Y-64026247D02*
X182809523Y-64264342D01*
X182809523Y-64264342D02*
X182761904Y-64359580D01*
X182761904Y-64359580D02*
X182714285Y-64407200D01*
X182714285Y-64407200D02*
X182619047Y-64454819D01*
X182619047Y-64454819D02*
X182380952Y-64454819D01*
X182380952Y-64454819D02*
X182285714Y-64407200D01*
X182285714Y-64407200D02*
X182238095Y-64359580D01*
X183285714Y-64454819D02*
X183476190Y-64454819D01*
X183476190Y-64454819D02*
X183571428Y-64407200D01*
X183571428Y-64407200D02*
X183619047Y-64359580D01*
X183619047Y-64359580D02*
X183714285Y-64216723D01*
X183714285Y-64216723D02*
X183761904Y-64026247D01*
X183761904Y-64026247D02*
X183761904Y-63645295D01*
X183761904Y-63645295D02*
X183714285Y-63550057D01*
X183714285Y-63550057D02*
X183666666Y-63502438D01*
X183666666Y-63502438D02*
X183571428Y-63454819D01*
X183571428Y-63454819D02*
X183380952Y-63454819D01*
X183380952Y-63454819D02*
X183285714Y-63502438D01*
X183285714Y-63502438D02*
X183238095Y-63550057D01*
X183238095Y-63550057D02*
X183190476Y-63645295D01*
X183190476Y-63645295D02*
X183190476Y-63883390D01*
X183190476Y-63883390D02*
X183238095Y-63978628D01*
X183238095Y-63978628D02*
X183285714Y-64026247D01*
X183285714Y-64026247D02*
X183380952Y-64073866D01*
X183380952Y-64073866D02*
X183571428Y-64073866D01*
X183571428Y-64073866D02*
X183666666Y-64026247D01*
X183666666Y-64026247D02*
X183714285Y-63978628D01*
X183714285Y-63978628D02*
X183761904Y-63883390D01*
X184666666Y-63454819D02*
X184190476Y-63454819D01*
X184190476Y-63454819D02*
X184142857Y-63931009D01*
X184142857Y-63931009D02*
X184190476Y-63883390D01*
X184190476Y-63883390D02*
X184285714Y-63835771D01*
X184285714Y-63835771D02*
X184523809Y-63835771D01*
X184523809Y-63835771D02*
X184619047Y-63883390D01*
X184619047Y-63883390D02*
X184666666Y-63931009D01*
X184666666Y-63931009D02*
X184714285Y-64026247D01*
X184714285Y-64026247D02*
X184714285Y-64264342D01*
X184714285Y-64264342D02*
X184666666Y-64359580D01*
X184666666Y-64359580D02*
X184619047Y-64407200D01*
X184619047Y-64407200D02*
X184523809Y-64454819D01*
X184523809Y-64454819D02*
X184285714Y-64454819D01*
X184285714Y-64454819D02*
X184190476Y-64407200D01*
X184190476Y-64407200D02*
X184142857Y-64359580D01*
X156760104Y-85121142D02*
X156760104Y-84644952D01*
X157045819Y-85216380D02*
X156045819Y-84883047D01*
X156045819Y-84883047D02*
X157045819Y-84549714D01*
X157045819Y-84216380D02*
X156379152Y-84216380D01*
X156569628Y-84216380D02*
X156474390Y-84168761D01*
X156474390Y-84168761D02*
X156426771Y-84121142D01*
X156426771Y-84121142D02*
X156379152Y-84025904D01*
X156379152Y-84025904D02*
X156379152Y-83930666D01*
X157045819Y-83168761D02*
X156045819Y-83168761D01*
X156998200Y-83168761D02*
X157045819Y-83263999D01*
X157045819Y-83263999D02*
X157045819Y-83454475D01*
X157045819Y-83454475D02*
X156998200Y-83549713D01*
X156998200Y-83549713D02*
X156950580Y-83597332D01*
X156950580Y-83597332D02*
X156855342Y-83644951D01*
X156855342Y-83644951D02*
X156569628Y-83644951D01*
X156569628Y-83644951D02*
X156474390Y-83597332D01*
X156474390Y-83597332D02*
X156426771Y-83549713D01*
X156426771Y-83549713D02*
X156379152Y-83454475D01*
X156379152Y-83454475D02*
X156379152Y-83263999D01*
X156379152Y-83263999D02*
X156426771Y-83168761D01*
X156379152Y-82263999D02*
X157045819Y-82263999D01*
X156379152Y-82692570D02*
X156902961Y-82692570D01*
X156902961Y-82692570D02*
X156998200Y-82644951D01*
X156998200Y-82644951D02*
X157045819Y-82549713D01*
X157045819Y-82549713D02*
X157045819Y-82406856D01*
X157045819Y-82406856D02*
X156998200Y-82311618D01*
X156998200Y-82311618D02*
X156950580Y-82263999D01*
X157045819Y-81787808D02*
X156379152Y-81787808D01*
X156045819Y-81787808D02*
X156093438Y-81835427D01*
X156093438Y-81835427D02*
X156141057Y-81787808D01*
X156141057Y-81787808D02*
X156093438Y-81740189D01*
X156093438Y-81740189D02*
X156045819Y-81787808D01*
X156045819Y-81787808D02*
X156141057Y-81787808D01*
X156379152Y-81311618D02*
X157045819Y-81311618D01*
X156474390Y-81311618D02*
X156426771Y-81263999D01*
X156426771Y-81263999D02*
X156379152Y-81168761D01*
X156379152Y-81168761D02*
X156379152Y-81025904D01*
X156379152Y-81025904D02*
X156426771Y-80930666D01*
X156426771Y-80930666D02*
X156522009Y-80883047D01*
X156522009Y-80883047D02*
X157045819Y-80883047D01*
X157045819Y-80263999D02*
X156998200Y-80359237D01*
X156998200Y-80359237D02*
X156950580Y-80406856D01*
X156950580Y-80406856D02*
X156855342Y-80454475D01*
X156855342Y-80454475D02*
X156569628Y-80454475D01*
X156569628Y-80454475D02*
X156474390Y-80406856D01*
X156474390Y-80406856D02*
X156426771Y-80359237D01*
X156426771Y-80359237D02*
X156379152Y-80263999D01*
X156379152Y-80263999D02*
X156379152Y-80121142D01*
X156379152Y-80121142D02*
X156426771Y-80025904D01*
X156426771Y-80025904D02*
X156474390Y-79978285D01*
X156474390Y-79978285D02*
X156569628Y-79930666D01*
X156569628Y-79930666D02*
X156855342Y-79930666D01*
X156855342Y-79930666D02*
X156950580Y-79978285D01*
X156950580Y-79978285D02*
X156998200Y-80025904D01*
X156998200Y-80025904D02*
X157045819Y-80121142D01*
X157045819Y-80121142D02*
X157045819Y-80263999D01*
X157045819Y-78740189D02*
X156045819Y-78740189D01*
X156045819Y-78740189D02*
X157045819Y-78168761D01*
X157045819Y-78168761D02*
X156045819Y-78168761D01*
X157045819Y-77263999D02*
X156522009Y-77263999D01*
X156522009Y-77263999D02*
X156426771Y-77311618D01*
X156426771Y-77311618D02*
X156379152Y-77406856D01*
X156379152Y-77406856D02*
X156379152Y-77597332D01*
X156379152Y-77597332D02*
X156426771Y-77692570D01*
X156998200Y-77263999D02*
X157045819Y-77359237D01*
X157045819Y-77359237D02*
X157045819Y-77597332D01*
X157045819Y-77597332D02*
X156998200Y-77692570D01*
X156998200Y-77692570D02*
X156902961Y-77740189D01*
X156902961Y-77740189D02*
X156807723Y-77740189D01*
X156807723Y-77740189D02*
X156712485Y-77692570D01*
X156712485Y-77692570D02*
X156664866Y-77597332D01*
X156664866Y-77597332D02*
X156664866Y-77359237D01*
X156664866Y-77359237D02*
X156617247Y-77263999D01*
X156379152Y-76787808D02*
X157045819Y-76787808D01*
X156474390Y-76787808D02*
X156426771Y-76740189D01*
X156426771Y-76740189D02*
X156379152Y-76644951D01*
X156379152Y-76644951D02*
X156379152Y-76502094D01*
X156379152Y-76502094D02*
X156426771Y-76406856D01*
X156426771Y-76406856D02*
X156522009Y-76359237D01*
X156522009Y-76359237D02*
X157045819Y-76359237D01*
X157045819Y-75740189D02*
X156998200Y-75835427D01*
X156998200Y-75835427D02*
X156950580Y-75883046D01*
X156950580Y-75883046D02*
X156855342Y-75930665D01*
X156855342Y-75930665D02*
X156569628Y-75930665D01*
X156569628Y-75930665D02*
X156474390Y-75883046D01*
X156474390Y-75883046D02*
X156426771Y-75835427D01*
X156426771Y-75835427D02*
X156379152Y-75740189D01*
X156379152Y-75740189D02*
X156379152Y-75597332D01*
X156379152Y-75597332D02*
X156426771Y-75502094D01*
X156426771Y-75502094D02*
X156474390Y-75454475D01*
X156474390Y-75454475D02*
X156569628Y-75406856D01*
X156569628Y-75406856D02*
X156855342Y-75406856D01*
X156855342Y-75406856D02*
X156950580Y-75454475D01*
X156950580Y-75454475D02*
X156998200Y-75502094D01*
X156998200Y-75502094D02*
X157045819Y-75597332D01*
X157045819Y-75597332D02*
X157045819Y-75740189D01*
X175895095Y-85179819D02*
X175895095Y-85989342D01*
X175895095Y-85989342D02*
X175942714Y-86084580D01*
X175942714Y-86084580D02*
X175990333Y-86132200D01*
X175990333Y-86132200D02*
X176085571Y-86179819D01*
X176085571Y-86179819D02*
X176276047Y-86179819D01*
X176276047Y-86179819D02*
X176371285Y-86132200D01*
X176371285Y-86132200D02*
X176418904Y-86084580D01*
X176418904Y-86084580D02*
X176466523Y-85989342D01*
X176466523Y-85989342D02*
X176466523Y-85179819D01*
X176847476Y-85179819D02*
X177466523Y-85179819D01*
X177466523Y-85179819D02*
X177133190Y-85560771D01*
X177133190Y-85560771D02*
X177276047Y-85560771D01*
X177276047Y-85560771D02*
X177371285Y-85608390D01*
X177371285Y-85608390D02*
X177418904Y-85656009D01*
X177418904Y-85656009D02*
X177466523Y-85751247D01*
X177466523Y-85751247D02*
X177466523Y-85989342D01*
X177466523Y-85989342D02*
X177418904Y-86084580D01*
X177418904Y-86084580D02*
X177371285Y-86132200D01*
X177371285Y-86132200D02*
X177276047Y-86179819D01*
X177276047Y-86179819D02*
X176990333Y-86179819D01*
X176990333Y-86179819D02*
X176895095Y-86132200D01*
X176895095Y-86132200D02*
X176847476Y-86084580D01*
X167767095Y-63589819D02*
X167767095Y-64399342D01*
X167767095Y-64399342D02*
X167814714Y-64494580D01*
X167814714Y-64494580D02*
X167862333Y-64542200D01*
X167862333Y-64542200D02*
X167957571Y-64589819D01*
X167957571Y-64589819D02*
X168148047Y-64589819D01*
X168148047Y-64589819D02*
X168243285Y-64542200D01*
X168243285Y-64542200D02*
X168290904Y-64494580D01*
X168290904Y-64494580D02*
X168338523Y-64399342D01*
X168338523Y-64399342D02*
X168338523Y-63589819D01*
X168767095Y-63685057D02*
X168814714Y-63637438D01*
X168814714Y-63637438D02*
X168909952Y-63589819D01*
X168909952Y-63589819D02*
X169148047Y-63589819D01*
X169148047Y-63589819D02*
X169243285Y-63637438D01*
X169243285Y-63637438D02*
X169290904Y-63685057D01*
X169290904Y-63685057D02*
X169338523Y-63780295D01*
X169338523Y-63780295D02*
X169338523Y-63875533D01*
X169338523Y-63875533D02*
X169290904Y-64018390D01*
X169290904Y-64018390D02*
X168719476Y-64589819D01*
X168719476Y-64589819D02*
X169338523Y-64589819D01*
X183515095Y-73876819D02*
X183515095Y-74686342D01*
X183515095Y-74686342D02*
X183562714Y-74781580D01*
X183562714Y-74781580D02*
X183610333Y-74829200D01*
X183610333Y-74829200D02*
X183705571Y-74876819D01*
X183705571Y-74876819D02*
X183896047Y-74876819D01*
X183896047Y-74876819D02*
X183991285Y-74829200D01*
X183991285Y-74829200D02*
X184038904Y-74781580D01*
X184038904Y-74781580D02*
X184086523Y-74686342D01*
X184086523Y-74686342D02*
X184086523Y-73876819D01*
X185086523Y-74876819D02*
X184515095Y-74876819D01*
X184800809Y-74876819D02*
X184800809Y-73876819D01*
X184800809Y-73876819D02*
X184705571Y-74019676D01*
X184705571Y-74019676D02*
X184610333Y-74114914D01*
X184610333Y-74114914D02*
X184515095Y-74162533D01*
D11*
%TO.C,Arduino Nano*%
X147317000Y-59306000D02*
X147317000Y-61976000D01*
X147317000Y-64516000D02*
X147317000Y-102746000D01*
X147317000Y-102746000D02*
X165357000Y-102746000D01*
X149987000Y-61976000D02*
X147317000Y-61976000D01*
X149987000Y-64516000D02*
X147317000Y-64516000D01*
X149987000Y-64516000D02*
X149987000Y-61976000D01*
X149987000Y-64516000D02*
X149987000Y-100076000D01*
X149987000Y-100076000D02*
X147317000Y-100076000D01*
X162687000Y-61976000D02*
X162687000Y-100076000D01*
X162687000Y-61976000D02*
X165357000Y-61976000D01*
X162687000Y-100076000D02*
X165357000Y-100076000D01*
X165357000Y-59306000D02*
X147317000Y-59306000D01*
X165357000Y-102746000D02*
X165357000Y-59306000D01*
%TO.C,U3*%
X167712000Y-80276000D02*
X167712000Y-110996000D01*
X167712000Y-110996000D02*
X185612000Y-110996000D01*
X170202000Y-80336000D02*
X170202000Y-110936000D01*
X170202000Y-110936000D02*
X175662000Y-110936000D01*
X177662000Y-110936000D02*
X183122000Y-110936000D01*
X183122000Y-80336000D02*
X170202000Y-80336000D01*
X183122000Y-110936000D02*
X183122000Y-80336000D01*
X185612000Y-80276000D02*
X167712000Y-80276000D01*
X185612000Y-110996000D02*
X185612000Y-80276000D01*
X175662000Y-110936000D02*
G75*
G02*
X177662000Y-110936000I1000000J0D01*
G01*
%TO.C,U2*%
X166198000Y-61475000D02*
X166198000Y-63125000D01*
X166198000Y-65125000D02*
X166198000Y-66775000D01*
X166198000Y-66775000D02*
X186638000Y-66775000D01*
X186638000Y-61475000D02*
X166198000Y-61475000D01*
X186638000Y-66775000D02*
X186638000Y-61475000D01*
X166198000Y-63125000D02*
G75*
G02*
X166198000Y-65125000I0J-1000000D01*
G01*
%TO.C,U1*%
X166183000Y-71772000D02*
X166183000Y-77072000D01*
X166183000Y-77072000D02*
X186623000Y-77072000D01*
X186623000Y-71772000D02*
X166183000Y-71772000D01*
X186623000Y-73422000D02*
X186623000Y-71772000D01*
X186623000Y-77072000D02*
X186623000Y-75422000D01*
X186623000Y-75422000D02*
G75*
G02*
X186623000Y-73422000I0J1000000D01*
G01*
%TD*%
M02*
